<svg xmlns="http://www.w3.org/2000/svg" width="39.005" height="31.956" viewBox="0 0 39.005 31.956"><defs><style>.a{fill:none;stroke:#000;stroke-linecap:round;stroke-linejoin:round;stroke-width:2px;}</style></defs><g transform="translate(1 1)"><path class="a" d="M33.641,29.956H3.364A3.35,3.35,0,0,1,0,26.628V8.322A3.351,3.351,0,0,1,3.364,4.993h6.729L13.456,0H23.548l3.365,4.993h6.728a3.351,3.351,0,0,1,3.365,3.329V26.628A3.35,3.35,0,0,1,33.641,29.956ZM18.5,9.986a6.657,6.657,0,1,0,6.729,6.657A6.7,6.7,0,0,0,18.5,9.986Z" transform="translate(0 0)"/></g></svg>