<svg xmlns="http://www.w3.org/2000/svg" width="124" height="124" fill="none" viewBox="0 0 124 124">
  <path fill="#7BDCB5" d="M62 124c34.242 0 62-27.758 62-62 0-34.242-27.758-62-62-62C27.758 0 0 27.758 0 62c0 34.242 27.758 62 62 62Z"/>
  <path fill="#fff" d="M61.541 62.475c10.902 0 19.738-8.835 19.738-19.737C81.279 31.836 72.443 23 61.54 23s-19.738 8.836-19.738 19.738 8.836 19.737 19.738 19.737ZM43.037 88.381a3.692 3.692 0 0 0 3.7 3.701 3.692 3.692 0 0 0 3.702-3.7c0-2.052-1.65-3.702-3.701-3.702s-3.701 1.65-3.701 3.701Zm33.307-20.879v7.556c5.629 1.141 9.87 6.138 9.87 12.09v6.43c0 1.172-.833 2.19-1.99 2.42l-4.965.988a1.228 1.228 0 0 1-1.45-.972l-.478-2.42a1.22 1.22 0 0 1 .972-1.45l2.976-.602v-4.394c0-9.684-14.803-10.039-14.803.293v4.117l2.976.601c.663.14 1.094.787.971 1.45l-.478 2.42a1.251 1.251 0 0 1-1.45.972l-4.81-.648a2.464 2.464 0 0 1-2.129-2.451v-6.754c0-5.952 4.241-10.933 9.87-12.09v-6.97c-.34.108-.68.17-1.018.293a26.74 26.74 0 0 1-8.852 1.512c-3.099 0-6.075-.54-8.85-1.512-1.142-.4-2.298-.647-3.486-.801v12.582c3.562 1.064 6.169 4.334 6.169 8.235 0 4.765-3.871 8.635-8.636 8.635-4.765 0-8.635-3.87-8.635-8.635 0-3.901 2.606-7.17 6.168-8.235V67.765C34.479 69.415 27 77.865 27 88.135v6.908c0 3.809 3.1 6.908 6.908 6.908h55.266c3.809 0 6.908-3.1 6.908-6.908v-6.908c0-11.103-8.758-20.093-19.738-20.633Z"/>
</svg>
