<svg width="116" height="115" viewBox="0 0 116 115" fill="none" xmlns="http://www.w3.org/2000/svg">
<path d="M72.7104 114.999H48.6407V76.2201H43.5593C40.4569 76.2201 37.943 73.7062 37.943 70.6038V60.441C37.943 57.3387 40.4569 54.8248 43.5593 54.8248H48.6407V41.4527C48.6407 30.3806 57.6267 21.3945 68.6988 21.3945H83.1407C86.243 21.3945 88.7569 23.9085 88.7569 27.0108V39.848C88.7569 42.9503 86.243 45.4643 83.1407 45.4643H72.7104V54.8248H82.7662C83.5956 54.8205 84.4156 55.001 85.1666 55.3529C85.9176 55.7049 86.5809 56.2196 87.1084 56.8597C87.6358 57.4998 88.0142 58.2493 88.2161 59.0537C88.4179 59.8582 88.4383 60.6975 88.2755 61.5108L86.243 71.6736C85.7081 74.2945 83.4081 76.1666 80.7337 76.1666H72.7104V114.999ZM56.6639 106.976H64.6872V68.1969H78.8081L79.8779 62.848H64.7407V43.0573C64.7407 39.955 67.2546 37.441 70.3569 37.441H80.7872V29.4178H68.6988C62.0662 29.4178 56.6639 34.8201 56.6639 41.4527V62.848H45.9662V68.1969H56.6639V106.976Z" fill="#384974"/>
<path d="M74.0465 115H41.9535C12.9093 115 0.5 102.591 0.5 73.5465V41.4535C0.5 12.4093 12.9093 0 41.9535 0H74.0465C103.091 0 115.5 12.4093 115.5 41.4535V73.5465C115.5 102.591 103.091 115 74.0465 115ZM41.9535 8.02326C17.2953 8.02326 8.52326 16.7953 8.52326 41.4535V73.5465C8.52326 98.2047 17.2953 106.977 41.9535 106.977H74.0465C98.7047 106.977 107.477 98.2047 107.477 73.5465V41.4535C107.477 16.7953 98.7047 8.02326 74.0465 8.02326H41.9535Z" fill="#384974"/>
</svg>
