<svg width="116" height="115" viewBox="0 0 116 115" fill="none" xmlns="http://www.w3.org/2000/svg">
<path d="M74.0465 115H41.9535C12.9093 115 0.5 102.591 0.5 73.5465V41.4535C0.5 12.4093 12.9093 0 41.9535 0H74.0465C103.091 0 115.5 12.4093 115.5 41.4535V73.5465C115.5 102.591 103.091 115 74.0465 115ZM41.9535 8.02326C17.2953 8.02326 8.52326 16.7953 8.52326 41.4535V73.5465C8.52326 98.2047 17.2953 106.977 41.9535 106.977H74.0465C98.7047 106.977 107.477 98.2047 107.477 73.5465V41.4535C107.477 16.7953 98.7047 8.02326 74.0465 8.02326H41.9535Z" fill="#384974"/>
<path d="M58.0003 80.2297C51.9756 80.2155 46.2017 77.816 41.9416 73.5559C37.6815 69.2957 35.2819 63.5218 35.2678 57.4971C35.2819 51.4724 37.6815 45.6985 41.9416 41.4384C46.2017 37.1782 51.9756 34.7787 58.0003 34.7646C64.025 34.7787 69.7989 37.1782 74.0591 41.4384C78.3192 45.6985 80.7188 51.4724 80.7329 57.4971C80.7188 63.5218 78.3192 69.2957 74.0591 73.5559C69.7989 77.816 64.025 80.2155 58.0003 80.2297ZM58.0003 42.7878C49.8701 42.7878 43.291 49.3669 43.291 57.4971C43.291 65.6273 49.8701 72.2064 58.0003 72.2064C66.1306 72.2064 72.7096 65.6273 72.7096 57.4971C72.7096 49.3669 66.1306 42.7878 58.0003 42.7878ZM84.7445 33.4273C84.0492 33.4273 83.3538 33.2669 82.712 32.9994C82.0701 32.732 81.4817 32.3576 80.9468 31.8762C80.4654 31.3413 80.0375 30.7529 79.7701 30.1111C79.5125 29.4649 79.3852 28.7741 79.3957 28.0785C79.3957 27.3832 79.5026 26.6878 79.7701 26.046C80.091 25.3506 80.4654 24.8157 80.9468 24.2808C81.2143 24.0669 81.4817 23.7994 81.7492 23.639C82.0701 23.425 82.391 23.2646 82.712 23.1576C83.6868 22.7522 84.7593 22.6426 85.796 22.8423C86.8327 23.042 87.7877 23.5423 88.5422 24.2808C89.0236 24.8157 89.398 25.3506 89.6654 26.046C89.9329 26.6878 90.0933 27.3832 90.0933 28.0785C90.0933 28.7739 89.9329 29.4692 89.6654 30.1111C89.398 30.7529 89.0236 31.3413 88.5422 31.8762C88.0073 32.3576 87.4189 32.732 86.7771 32.9994C86.1352 33.2669 85.4399 33.4273 84.7445 33.4273Z" fill="#384974"/>
</svg>
