<svg width="122" height="123" viewBox="0 0 122 123" fill="none" xmlns="http://www.w3.org/2000/svg">
<path d="M31.675 110.95C40.3 116.125 50.65 119 61 119C92.625 119 118.5 93.125 118.5 61.5C118.5 29.875 92.625 4 61 4C29.375 4 3.5 29.875 3.5 61.5C3.5 71.85 6.375 81.625 10.975 90.25L6.03 109.259C5.77488 110.241 5.7838 111.272 6.05586 112.249C6.32792 113.226 6.85344 114.113 7.57912 114.821C8.30481 115.53 9.20486 116.033 10.188 116.281C11.1712 116.53 12.2024 116.513 13.1773 116.234L31.675 110.95Z" stroke="#384974" stroke-width="7" stroke-miterlimit="10" stroke-linecap="round" stroke-linejoin="round"/>
<path d="M86.875 77.876C86.875 78.8075 86.668 79.7677 86.2252 80.6992C85.7735 81.6617 85.1804 82.5513 84.4657 83.3385C83.195 84.7358 81.7977 85.742 80.2107 86.3918C78.6582 87.0415 76.9735 87.375 75.1623 87.375C72.5173 87.375 69.694 86.754 66.7098 85.489C63.5548 84.1212 60.565 82.4006 57.7972 80.36C54.7871 78.1611 51.9462 75.7393 49.2988 73.115C46.6794 70.4821 44.2632 67.6546 42.071 64.6567C40.0563 61.9132 38.3516 58.955 36.988 55.8363C35.746 52.875 35.125 50.0575 35.125 47.3723C35.125 45.6128 35.4355 43.9338 36.0565 42.3813C36.6775 40.8 37.6665 39.351 39.0407 38.0572C40.6967 36.4242 42.508 35.625 44.4285 35.625C45.153 35.625 45.8775 35.7802 46.5272 36.0907C47.2 36.4012 47.7922 36.867 48.2637 37.5398L54.2783 46.0038C54.7383 46.6478 55.0832 47.2457 55.3132 47.815C55.5432 48.3555 55.6755 48.9018 55.6755 49.3905C55.668 50.0427 55.4789 50.6799 55.1293 51.2305C54.73 51.9036 54.2427 52.5205 53.6803 53.0647L51.708 55.1117C51.5708 55.246 51.4631 55.4074 51.3918 55.5856C51.3206 55.7638 51.2872 55.9549 51.294 56.1468C51.294 56.348 51.3228 56.532 51.3745 56.739C51.4493 56.946 51.5298 57.1013 51.5815 57.2565C52.0415 58.1133 52.8465 59.223 53.9908 60.5685C55.158 61.914 56.4 63.2882 57.7455 64.6567C59.1485 66.031 60.494 67.296 61.8683 68.4633C63.2138 69.596 64.3293 70.3722 65.209 70.838L65.6805 71.0508C65.887 71.1244 66.1053 71.1595 66.3245 71.1542C66.5229 71.1585 66.7199 71.1213 66.9031 71.0451C67.0862 70.9689 67.2515 70.8552 67.3883 70.7115L69.3548 68.768C70.0045 68.124 70.6255 67.6353 71.2235 67.319C71.7734 66.9686 72.4114 66.7812 73.0635 66.7785C73.6078 66.7865 74.1451 66.9018 74.6448 67.1178C75.214 67.3478 75.812 67.6813 76.456 68.124L85.035 74.2075C85.6566 74.6119 86.151 75.1841 86.461 75.8577C86.7298 76.4969 86.8705 77.1826 86.875 77.876Z" stroke="#384974" stroke-width="7" stroke-miterlimit="10"/>
</svg>
