<svg width="67" height="62" viewBox="0 0 67 62" fill="none" xmlns="http://www.w3.org/2000/svg">
<path d="M25.5 1V61V1ZM25.5 7H58.1864C66.0661 7 67.8172 11.5 62.2722 17.2L58.7701 20.8C56.4353 23.2 56.4353 27.1 58.7701 29.2L62.2722 32.8C67.8172 38.5 65.7743 43 58.1864 43H25.5" fill="#F35E5E"/>
<path d="M25.5 1V61M25.5 7H58.1864C66.0661 7 67.8172 11.5 62.2722 17.2L58.7701 20.8C56.4353 23.2 56.4353 27.1 58.7701 29.2L62.2722 32.8C67.8172 38.5 65.7743 43 58.1864 43H25.5" stroke="black" stroke-width="1.5" stroke-miterlimit="10" stroke-linecap="round" stroke-linejoin="round"/>
</svg>
