<svg width="56" height="55" viewBox="0 0 56 55" fill="none" xmlns="http://www.w3.org/2000/svg">
<path d="M23.2083 30.5625C23.2083 32.26 24.5208 33.625 26.1308 33.625H29.4208C30.8208 33.625 31.9583 32.435 31.9583 30.9475C31.9583 29.355 31.2583 28.7775 30.2258 28.41L24.9583 26.5725C23.9258 26.205 23.2258 25.645 23.2258 24.035C23.2258 22.565 24.3633 21.3575 25.7633 21.3575H29.0533C30.6633 21.3575 31.9758 22.7225 31.9758 24.42M27.5833 19.625V35.375" stroke="white" stroke-width="1.5" stroke-linecap="round" stroke-linejoin="round"/>
<path d="M45.0833 27.5C45.0833 37.16 37.2433 45 27.5833 45C17.9233 45 10.0833 37.16 10.0833 27.5C10.0833 17.84 17.9233 10 27.5833 10" stroke="white" stroke-width="1.5" stroke-linecap="round" stroke-linejoin="round"/>
<path d="M36.3333 11.75V18.75M36.3333 18.75H43.3333M36.3333 18.75L45.0833 10" stroke="white" stroke-width="1.5" stroke-linecap="round" stroke-linejoin="round"/>
<rect x="0.583313" y="0.5" width="54" height="54" rx="27" stroke="white"/>
</svg>
