<svg width="66" height="62" viewBox="0 0 66 62" fill="none" xmlns="http://www.w3.org/2000/svg">
<path d="M25 1V61ZM25 7H57.6864C65.5661 7 67.3172 11.5 61.7722 17.2L58.2701 20.8C55.9353 23.2 55.9353 27.1 58.2701 29.2L61.7722 32.8C67.3172 38.5 65.2743 43 57.6864 43H25" fill="#F35E5E"/>
<path d="M25 1V61M25 7H57.6864C65.5661 7 67.3172 11.5 61.7722 17.2L58.2701 20.8C55.9353 23.2 55.9353 27.1 58.2701 29.2L61.7722 32.8C67.3172 38.5 65.2743 43 57.6864 43H25" stroke="black" stroke-width="1.5" stroke-miterlimit="10" stroke-linecap="round" stroke-linejoin="round"/>
</svg>
