<svg width="56" height="55" viewBox="0 0 56 55" fill="none" xmlns="http://www.w3.org/2000/svg">
<path d="M27.9166 38.8749C30.9335 38.8749 33.8267 37.6764 35.96 35.5432C38.0932 33.41 39.2916 30.5167 39.2916 27.4999C39.2916 24.483 38.0932 21.5898 35.96 19.4565C33.8267 17.3233 30.9335 16.1249 27.9166 16.1249C24.8998 16.1249 22.0065 17.3233 19.8733 19.4565C17.7401 21.5898 16.5416 24.483 16.5416 27.4999C16.5416 30.5167 17.7401 33.41 19.8733 35.5432C22.0065 37.6764 24.8998 38.8749 27.9166 38.8749Z" stroke="white" stroke-width="1.5" stroke-linecap="round" stroke-linejoin="round"/>
<path d="M40.4117 39.995L40.1842 39.7675M40.1842 15.2325L40.4117 15.005M15.4217 39.995L15.6492 39.7675M27.9167 10.14V10M27.9167 45V44.86M10.5567 27.5H10.4167M45.4167 27.5H45.2767M15.6492 15.2325L15.4217 15.005" stroke="white" stroke-width="2" stroke-linecap="round" stroke-linejoin="round"/>
<rect x="0.916748" y="0.5" width="54" height="54" rx="27" stroke="white"/>
</svg>
