<svg width="62" height="55" viewBox="0 0 62 55" fill="none" xmlns="http://www.w3.org/2000/svg">
<path d="M12.2778 31.9722V19.7222C12.2778 12.9167 16.1667 10 22.0001 10H41.4445C47.2778 10 51.1667 12.9167 51.1667 19.7222V31.3889C51.1667 38.1944 47.2778 41.1111 41.4445 41.1111H24.9167" stroke="white" stroke-width="1.5" stroke-miterlimit="10" stroke-linecap="round" stroke-linejoin="round"/>
<path d="M44.3612 20.6943V30.4166M20.1937 39.2443L16.0909 35.1416M20.1334 35.1999L16.0306 39.3027M31.7223 30.4166C33.0115 30.4166 34.248 29.9044 35.1596 28.9928C36.0712 28.0811 36.5834 26.8447 36.5834 25.5554C36.5834 24.2662 36.0712 23.0298 35.1596 22.1181C34.248 21.2065 33.0115 20.6943 31.7223 20.6943C30.433 20.6943 29.1966 21.2065 28.2849 22.1181C27.3733 23.0298 26.8612 24.2662 26.8612 25.5554C26.8612 26.8447 27.3733 28.0811 28.2849 28.9928C29.1966 29.9044 30.433 30.4166 31.7223 30.4166ZM25.8889 37.2221C25.8889 38.6804 25.4806 40.061 24.7612 41.2277C24.0757 42.3797 23.102 43.3334 21.936 43.9949C20.7699 44.6563 19.4517 45.0027 18.1112 44.9999C16.7706 45.0027 15.4524 44.6563 14.2864 43.9949C13.1203 43.3334 12.1466 42.3797 11.4612 41.2277C10.721 40.0229 10.3305 38.6361 10.3334 37.2221C10.3334 32.9249 13.8139 29.4443 18.1112 29.4443C22.4084 29.4443 25.8889 32.9249 25.8889 37.2221Z" stroke="white" stroke-width="1.5" stroke-miterlimit="10" stroke-linecap="round" stroke-linejoin="round"/>
<rect x="0.833374" y="0.5" width="59.8333" height="54" rx="27" stroke="white"/>
</svg>
