<svg width="768" height="298" viewBox="0 0 768 298" fill="none" xmlns="http://www.w3.org/2000/svg">
<g filter="url(#filter0_i_144_121)">
<path d="M0.428126 246V190.8L126.828 9.99999H203.228V186.8H236.028V246H203.228V298H134.828V246H0.428126ZM139.628 85.2L72.4281 186.8H139.628V85.2ZM269.531 148C269.531 102.133 278.331 66 295.931 39.6C313.798 13.2 342.465 -2.57492e-05 381.931 -2.57492e-05C421.398 -2.57492e-05 449.931 13.2 467.531 39.6C485.398 66 494.331 102.133 494.331 148C494.331 194.4 485.398 230.8 467.531 257.2C449.931 283.6 421.398 296.8 381.931 296.8C342.465 296.8 313.798 283.6 295.931 257.2C278.331 230.8 269.531 194.4 269.531 148ZM427.131 148C427.131 121.067 424.198 100.4 418.331 86C412.465 71.3333 400.331 64 381.931 64C363.531 64 351.398 71.3333 345.531 86C339.665 100.4 336.731 121.067 336.731 148C336.731 166.133 337.798 181.2 339.931 193.2C342.065 204.933 346.331 214.533 352.731 222C359.398 229.2 369.131 232.8 381.931 232.8C394.731 232.8 404.331 229.2 410.731 222C417.398 214.533 421.798 204.933 423.931 193.2C426.065 181.2 427.131 166.133 427.131 148ZM532.069 246V190.8L658.469 9.99999H734.869V186.8H767.669V246H734.869V298H666.469V246H532.069ZM671.269 85.2L604.069 186.8H671.269V85.2Z" fill="#384974" fill-opacity="0.38"/>
</g>
<defs>
<filter id="filter0_i_144_121" x="0.428131" y="0" width="767.241" height="302" filterUnits="userSpaceOnUse" color-interpolation-filters="sRGB">
<feFlood flood-opacity="0" result="BackgroundImageFix"/>
<feBlend mode="normal" in="SourceGraphic" in2="BackgroundImageFix" result="shape"/>
<feColorMatrix in="SourceAlpha" type="matrix" values="0 0 0 0 0 0 0 0 0 0 0 0 0 0 0 0 0 0 127 0" result="hardAlpha"/>
<feOffset dy="4"/>
<feGaussianBlur stdDeviation="10"/>
<feComposite in2="hardAlpha" operator="arithmetic" k2="-1" k3="1"/>
<feColorMatrix type="matrix" values="0 0 0 0 0 0 0 0 0 0 0 0 0 0 0 0 0 0 0.25 0"/>
<feBlend mode="normal" in2="shape" result="effect1_innerShadow_144_121"/>
</filter>
</defs>
</svg>
