<svg width="60" height="61" viewBox="0 0 60 61" fill="none" xmlns="http://www.w3.org/2000/svg">
<rect y="0.5" width="60" height="60" rx="30" fill="#384974"/>
<path d="M35.8729 16.1486V16.1466C35.8729 13.4699 38.1048 11.25 40.9109 11.25C43.7001 11.25 45.9484 13.4532 45.9489 16.1457C45.9449 17.4062 45.4405 18.6199 44.5359 19.5309C43.6434 20.4296 42.4296 20.9644 41.1421 21.0219C40.9815 21.0047 40.8195 21.0047 40.6589 21.022C39.3729 20.967 38.1602 20.4328 37.2706 19.5337C36.3687 18.6222 35.8695 17.4077 35.8729 16.1486ZM47.2344 34.6856L47.234 34.6859C45.4174 35.8727 42.9082 36.4265 40.4446 36.3C40.9847 34.8615 41.2672 33.3149 41.2843 31.7072H41.2844V31.6992C41.2844 30.0175 40.9757 28.3961 40.3758 26.9156C42.8768 26.7783 45.3843 27.3323 47.2166 28.5187L47.2189 28.5203C48.6467 29.4371 49.2481 30.5686 49.25 31.5955C49.2519 32.6234 48.6538 33.7596 47.2344 34.6856ZM24.1387 16.1466L24.1387 16.1486C24.142 17.4077 23.6428 18.6222 22.7409 19.5337C21.8513 20.4328 20.6385 20.967 19.3525 21.022C19.1913 21.0047 19.0297 21.0047 18.8685 21.022C16.1803 20.9091 14.0826 18.7565 14.0826 16.1466C14.0826 15.5075 14.2116 14.8741 14.4628 14.2826C14.714 13.691 15.0826 13.1523 15.5487 12.6976C16.0148 12.2429 16.5691 11.8813 17.1805 11.6342C17.7919 11.3872 18.4478 11.2598 19.1106 11.2598C19.7735 11.2598 20.4294 11.3872 21.0408 11.6342C21.6522 11.8813 22.2065 12.2429 22.6726 12.6976C23.1386 13.1523 23.5073 13.691 23.7585 14.2826C24.0096 14.8741 24.1387 15.5075 24.1387 16.1466ZM12.7813 28.5185L12.7849 28.5162C14.5013 27.3894 16.8833 26.8276 19.2643 26.9011C18.6801 28.3863 18.3727 30.0049 18.3727 31.6992C18.3727 33.3256 18.6652 34.8853 19.2053 36.3332C16.8542 36.3921 14.5229 35.8204 12.7797 34.703C11.3513 33.7764 10.75 32.6402 10.75 31.6112C10.75 30.5819 11.3518 29.4453 12.7813 28.5185ZM35.8931 42.2713L35.8975 42.2742C37.2525 43.1496 37.8226 44.2359 37.8226 45.2222C37.8226 46.2092 37.2516 47.3012 35.8948 48.1866C34.3205 49.2135 32.1983 49.75 30.0358 49.75C27.8732 49.75 25.7511 49.2135 24.1768 48.1866L24.1741 48.1849C22.8191 47.3094 22.249 46.2231 22.249 45.2368C22.249 44.25 22.8197 43.1583 24.1759 42.273C25.761 41.2453 27.8888 40.709 30.0508 40.709C32.2136 40.709 34.3298 41.2456 35.8931 42.2713ZM34.4572 35.0321C33.3647 36.1332 31.8768 36.785 30.3009 36.8484C30.1113 36.8307 29.9204 36.8307 29.7308 36.8484C28.1572 36.7845 26.6721 36.1322 25.5829 35.0311C24.4833 33.9195 23.8733 32.4379 23.8762 30.9008C23.8947 27.6153 26.6099 24.9269 30.0358 24.9269C33.4443 24.9269 36.1751 27.6171 36.1754 30.8976C36.1744 32.4374 35.5604 33.9202 34.4572 35.0321Z" fill="white" stroke="#384974" stroke-width="1.5"/>
</svg>
