<svg width="60" height="61" viewBox="0 0 60 61" fill="none" xmlns="http://www.w3.org/2000/svg">
<rect x="1" y="1.5" width="58" height="58" rx="29" fill="#333333"/>
<circle cx="29.7339" cy="31" r="10.5" fill="white"/>
<path d="M26.052 33.3332C26.052 34.8421 27.2163 36.0554 28.6446 36.0554H31.5632C32.8051 36.0554 33.8142 34.9976 33.8142 33.6754C33.8142 32.2599 33.1933 31.7465 32.2773 31.4199L27.6044 29.7865C26.6885 29.4599 26.0675 28.9621 26.0675 27.531C26.0675 26.2243 27.0766 25.151 28.3186 25.151H31.2372C32.6654 25.151 33.8298 26.3643 33.8298 27.8732M29.9331 23.611V37.611" stroke="#333333" stroke-width="2" stroke-linecap="round" stroke-linejoin="round"/>
<path d="M50 30.5C50 41.54 41.04 50.5 30 50.5C18.96 50.5 12.22 39.38 12.22 39.38M12.22 39.38H21.26M12.22 39.38V49.38M10 30.5C10 19.46 18.88 10.5 30 10.5C43.34 10.5 50 21.62 50 21.62M50 21.62V11.62M50 21.62H41.12" stroke="white" stroke-width="3" stroke-linecap="round" stroke-linejoin="round"/>
<rect x="1" y="1.5" width="58" height="58" rx="29" stroke="#333333" stroke-width="2"/>
</svg>