<svg width="60" height="61" viewBox="0 0 60 61" fill="none" xmlns="http://www.w3.org/2000/svg">
<rect x="0.75" y="1.25" width="58.5" height="58.5" rx="29.25" fill="#384974"/>
<circle cx="30" cy="30.5" r="20" fill="white"/>
<path d="M23 35.6667C23 38.2533 24.9461 40.3333 27.3333 40.3333H32.2116C34.2874 40.3333 35.9741 38.52 35.9741 36.2533C35.9741 33.8267 34.9361 32.9467 33.4052 32.3867L25.5948 29.5867C24.0639 29.0267 23.0259 28.1733 23.0259 25.72C23.0259 23.48 24.7126 21.64 26.7884 21.64H31.6667C34.0539 21.64 36 23.72 36 26.3067M29.487 19V43" stroke="#384974" stroke-linecap="round" stroke-linejoin="round"/>
<rect x="0.75" y="1.25" width="58.5" height="58.5" rx="29.25" stroke="#384974" stroke-width="1.5"/>
</svg>
