<svg width="70" height="71" viewBox="0 0 70 71" fill="none" xmlns="http://www.w3.org/2000/svg">
<rect y="0.496704" width="70" height="70.0067" rx="35" fill="#384974"/>
<path d="M34.9781 47.6563C28.2894 47.6545 22.8391 42.1935 22.8409 35.4975C22.8409 28.7819 28.3037 23.3316 35.0194 23.3406C41.7332 23.3513 47.1638 28.8088 47.1548 35.5388C47.1458 42.2221 41.6848 47.6581 34.9781 47.6563Z" fill="white"/>
<path d="M47.8592 56.4814C47.8233 56.8667 47.6728 57.0979 47.3609 57.2018C47.0293 57.313 46.7551 57.2054 46.5616 56.9294C46.3949 56.691 46.2622 56.4312 46.1153 56.1785C44.9306 54.1281 43.7495 52.076 42.563 50.0274C42.3892 49.7281 42.3336 49.4342 42.5487 49.1402C42.7315 48.8911 42.9967 48.78 43.2835 48.8857C43.4591 48.9502 43.6491 49.0865 43.7423 49.2442C45.0776 51.5293 46.3985 53.8216 47.7176 56.1157C47.7911 56.243 47.8251 56.3935 47.8574 56.4796L47.8592 56.4814Z" fill="white"/>
<path d="M55.9477 48.3517C55.8778 48.323 55.72 48.2782 55.5803 48.1975C53.331 46.9035 51.0817 45.6059 48.8359 44.3083C48.3735 44.0413 48.2337 43.6541 48.447 43.2706C48.6585 42.8924 49.0779 42.8082 49.5331 43.0699C51.7932 44.371 54.0514 45.6758 56.3079 46.9842C56.6717 47.1957 56.8115 47.5075 56.7166 47.8319C56.6269 48.1384 56.3545 48.3481 55.9495 48.3535L55.9477 48.3517Z" fill="white"/>
<path d="M22.8749 13.752C23.1796 13.7591 23.3857 13.9545 23.5488 14.2377C24.4181 15.7539 25.2945 17.2648 26.1673 18.7793C26.5778 19.4926 26.99 20.2041 27.4004 20.9192C27.6818 21.4103 27.6227 21.8207 27.2427 22.0466C26.8609 22.2742 26.4595 22.1236 26.1799 21.6433C24.8859 19.4083 23.5936 17.1716 22.3032 14.9331C21.9752 14.3631 22.2476 13.7699 22.8749 13.7537V13.752Z" fill="white"/>
<path d="M21.6437 27.3911C21.6401 27.9467 21.0612 28.2585 20.5414 27.9664C19.6148 27.4448 18.6972 26.9072 17.7759 26.3748C16.4156 25.5898 15.0553 24.8066 13.6985 24.0162C13.2523 23.7563 13.1304 23.3405 13.3741 22.966C13.6071 22.6075 13.9907 22.5466 14.4441 22.8064C16.0016 23.7044 17.5591 24.6041 19.1148 25.5038C19.8048 25.9017 20.4966 26.3014 21.1884 26.6975C21.4609 26.8516 21.6437 27.0595 21.6419 27.3893L21.6437 27.3911Z" fill="white"/>
<path d="M14.048 48.3588C13.634 48.3337 13.3974 48.1724 13.2881 47.848C13.1806 47.5254 13.3042 47.2081 13.6412 47.011C14.5803 46.4608 15.5266 45.9213 16.4694 45.3764C17.8064 44.604 19.1434 43.8297 20.4823 43.059C20.8999 42.8189 21.296 42.8852 21.5236 43.2221C21.7727 43.5913 21.6383 44.0304 21.1759 44.2993C19.7421 45.1309 18.3029 45.9589 16.8673 46.7869C16.0661 47.2494 15.2686 47.7153 14.4656 48.1724C14.3151 48.2584 14.1484 48.314 14.048 48.3588Z" fill="white"/>
<path d="M22.8391 57.2431C22.2996 57.2305 21.9788 56.6695 22.2477 56.1677C22.5416 55.6211 22.866 55.0923 23.176 54.5547C24.1761 52.8215 25.1744 51.0884 26.1745 49.3553C26.2068 49.2997 26.2355 49.2442 26.2731 49.1922C26.5079 48.8552 26.9058 48.7549 27.2373 48.9502C27.5707 49.1456 27.6926 49.5417 27.49 49.9055C27.0671 50.669 26.6226 51.4218 26.1853 52.1781C25.3053 53.7033 24.4235 55.2268 23.5488 56.752C23.3875 57.0334 23.185 57.2377 22.8391 57.2413V57.2431Z" fill="white"/>
<path d="M43.1957 22.2132C42.5343 22.1469 42.2296 21.5608 42.5523 20.9963C43.21 19.842 43.8785 18.6914 44.5417 17.5408C45.1869 16.4224 45.8303 15.3022 46.4827 14.1892C46.7946 13.6569 47.4075 13.6014 47.7229 14.0674C47.8968 14.3236 47.8878 14.5907 47.7355 14.8542C46.4056 17.1554 45.0811 19.4603 43.7369 21.7544C43.624 21.948 43.3785 22.0627 43.1939 22.215L43.1957 22.2132Z" fill="white"/>
<path d="M48.9937 28.1671C48.8019 27.9986 48.5528 27.8588 48.4219 27.6473C48.2678 27.3964 48.3341 27.1025 48.5599 26.8838C48.6406 26.805 48.7392 26.744 48.8377 26.6867C51.0619 25.3998 53.2862 24.113 55.5193 22.8387C55.7057 22.7311 55.9477 22.6576 56.1574 22.6684C56.4603 22.6845 56.6592 22.9068 56.7237 23.2043C56.7918 23.5215 56.6789 23.785 56.4011 23.9535C55.9136 24.2474 55.419 24.5306 54.9243 24.8155C53.1589 25.8353 51.3953 26.8569 49.6281 27.8731C49.4561 27.9717 49.2661 28.0416 48.9937 28.1689V28.1671Z" fill="white"/>
<path d="M35.704 15.2449C35.704 16.5622 35.7094 17.8795 35.7022 19.195C35.6986 19.7811 35.1914 20.136 34.7057 19.903C34.3957 19.7542 34.2899 19.4925 34.2899 19.1556C34.2953 17.4081 34.2899 15.6607 34.2899 13.9132C34.2899 13.0529 34.2863 12.1908 34.2899 11.3306C34.2917 10.8144 34.5874 10.4828 35.0158 10.4972C35.437 10.5097 35.6986 10.8251 35.7004 11.3323C35.7022 12.6371 35.7004 13.9419 35.7004 15.2449H35.704Z" fill="white"/>
<path d="M14.7291 36.2037C13.4118 36.2037 12.0962 36.209 10.7789 36.2019C10.218 36.1983 9.87563 35.7592 10.0423 35.2771C10.1749 34.8953 10.4725 34.7878 10.8506 34.7896C12.3579 34.7967 13.8634 34.7914 15.3707 34.7932C16.4855 34.7932 17.5985 34.7932 18.7133 34.7932C19.0538 34.7932 19.2994 34.9383 19.423 35.2574C19.5377 35.5495 19.475 35.8363 19.2313 36.0083C19.061 36.1284 18.8155 36.1947 18.6022 36.1965C17.3117 36.2126 16.0195 36.2055 14.7273 36.2055L14.7291 36.2037Z" fill="white"/>
<path d="M35.7022 55.7967C35.7022 57.1141 35.7022 58.4296 35.7022 59.7469C35.7022 60.0731 35.5624 60.3115 35.2667 60.4387C34.9835 60.5606 34.6968 60.5122 34.505 60.2774C34.3867 60.134 34.3025 59.9154 34.3007 59.7308C34.2881 57.0854 34.2899 54.4382 34.2935 51.7928C34.2935 51.3268 34.5874 51.0239 35.0032 51.0239C35.4119 51.0239 35.695 51.334 35.6968 51.8071C35.7022 53.137 35.6968 54.4651 35.6986 55.7949L35.7022 55.7967Z" fill="white"/>
<path d="M55.2272 36.2037C53.9099 36.2037 52.5943 36.2037 51.277 36.2037C50.9365 36.2037 50.6444 36.0621 50.5888 35.7305C50.5494 35.5011 50.6264 35.209 50.7537 35.01C50.8379 34.8774 51.1032 34.8021 51.2878 34.8003C53.9332 34.7878 56.5803 34.7896 59.2275 34.7932C59.6899 34.7932 60.0018 35.0961 60 35.5029C59.9982 35.908 59.6845 36.2001 59.2186 36.2019C57.8887 36.2073 56.5588 36.2037 55.2308 36.2037H55.2272Z" fill="white"/>
</svg>
