<svg width="65" height="65" viewBox="0 0 65 65" fill="none" xmlns="http://www.w3.org/2000/svg">
<rect x="1" y="1" width="63" height="63" rx="31.5" fill="#333333"/>
<path d="M32.4997 47.1246C36.3785 47.1246 40.0984 45.5838 42.8411 42.8411C45.5838 40.0983 47.1247 36.3784 47.1247 32.4996C47.1247 28.6208 45.5838 24.9009 42.8411 22.1582C40.0984 19.4155 36.3785 17.8746 32.4997 17.8746C28.6209 17.8746 24.901 19.4155 22.1583 22.1582C19.4155 24.9009 17.8747 28.6208 17.8747 32.4996C17.8747 36.3784 19.4155 40.0983 22.1583 42.8411C24.901 45.5838 28.6209 47.1246 32.4997 47.1246Z" fill="white" stroke="white" stroke-width="5" stroke-linecap="round" stroke-linejoin="round"/>
<path d="M48.565 48.565L48.2725 48.2725Z" fill="white"/>
<path d="M48.565 48.565L48.2725 48.2725M48.2725 16.7275L48.565 16.435M16.435 48.565L16.7275 48.2725M32.5 10.18V10M32.5 55V54.82M10.18 32.5H10M55 32.5H54.82M16.7275 16.7275L16.435 16.435" stroke="white" stroke-width="5" stroke-linecap="round" stroke-linejoin="round"/>
<rect x="1" y="1" width="63" height="63" rx="31.5" stroke="#333333" stroke-width="2"/>
</svg>