<svg width="550" height="243" viewBox="0 0 550 243" fill="none" xmlns="http://www.w3.org/2000/svg">
<path d="M440.157 30.8081C440.157 50.484 440.157 70.2245 440.157 90.224C439.704 89.7062 439.445 89.4473 439.25 89.1237C433.425 81.1627 427.6 73.2018 421.71 65.2408C421.257 64.6583 420.999 64.0758 420.999 63.2991C420.999 42.7819 420.999 22.1999 420.999 1.68271C420.999 1.42382 420.999 1.16492 420.999 0.841309C429.024 0.841309 436.92 0.841309 445.011 0.841309C473.424 48.7364 501.903 96.761 530.316 144.786C530.381 144.786 530.51 144.786 530.575 144.721C530.575 144.397 530.64 144.074 530.64 143.75C530.64 143.621 530.64 143.426 530.64 143.297C530.704 113.46 530.704 83.5575 530.769 53.7201C530.769 36.9568 530.834 20.1935 530.834 3.43023C530.834 2.58883 530.704 1.74743 530.575 0.841309C536.983 0.841309 543.325 0.841309 549.668 0.841309C549.733 0.906032 549.733 0.906032 549.798 0.970755C549.798 1.03548 549.862 1.03548 549.862 1.1002C549.927 1.42382 549.992 1.68271 549.992 2.00633C549.992 59.4805 549.992 117.019 549.992 174.623C541.837 174.623 533.811 174.623 525.98 174.623C497.437 126.598 468.958 78.6385 440.48 30.7434C440.415 30.7434 440.286 30.8081 440.157 30.8081Z" fill="#001448"/>
<path d="M83.3964 175.465C83.9142 175.012 84.2378 174.753 84.4967 174.429C85.4028 173.458 86.309 172.487 87.2798 171.581C88.3154 170.61 89.4804 169.704 90.516 168.733C92.9107 166.533 95.2408 164.332 97.5061 162.067C99.3183 160.255 100.678 158.119 102.101 156.048C103.396 154.106 104.237 152.035 105.273 150.028C106.308 148.151 106.891 146.016 107.15 143.88C107.409 142.003 107.732 140.061 107.927 138.184C107.991 137.019 108.185 135.789 107.538 134.689C107.473 134.56 107.473 134.301 107.473 134.106C107.538 131.129 106.567 128.411 105.338 125.822C103.914 122.715 102.231 119.673 99.8361 117.084C98.9947 116.178 98.0239 115.401 97.1825 114.495C94.8524 111.906 92.134 109.835 89.1568 108.023C87.7329 107.117 86.1148 106.47 84.6909 105.564C80.8075 103.104 76.471 101.615 72.5229 99.3501C71.1637 98.5734 69.8045 97.8615 68.2512 97.3437C66.8273 96.8906 65.5328 95.9198 64.1089 95.2726C62.0377 94.3017 59.9666 93.3956 57.8307 92.4895C56.0185 91.7128 54.2062 90.9361 52.394 90.1594C50.5817 89.3828 48.7695 88.6061 46.9572 87.8294C45.9216 87.3763 44.8214 86.9233 43.7858 86.4702C42.8797 86.0819 41.9735 85.823 41.0674 85.4346C40.0966 85.0463 39.2551 84.4638 38.2843 84.0107C36.8604 83.4282 35.3718 82.9104 33.9478 82.3279C33.2359 82.0043 32.6534 81.4865 32.0061 81.2276C30.1292 80.5157 28.3816 79.4801 26.5047 78.6387C25.9869 78.3798 25.4691 78.2504 24.9513 78.0562C24.6277 77.9267 24.3041 77.7973 23.9805 77.6031C20.6796 75.4673 17.1845 73.5256 14.0131 71.0014C10.1944 67.9594 7.15242 64.3349 4.56349 60.2573C3.33375 58.3156 2.68652 56.1797 1.78039 54.1086C0.874269 51.7138 0.680099 49.0602 0.162313 46.4713C-0.161303 44.8532 0.0975902 43.1057 0.29176 41.4229C0.421206 40.3873 0.162313 39.4164 0.356483 38.3161C0.874269 35.2094 1.58622 32.1027 2.42763 29.0607C3.07486 26.666 4.17515 24.4654 5.21073 22.2648C5.59907 21.4234 6.31102 20.7761 6.76408 19.9347C8.44689 17.0222 10.9064 14.8216 13.1717 12.4269C15.1134 10.3557 17.4434 8.80236 19.7735 7.249C22.686 5.37203 25.7927 3.68922 29.0289 2.39476C30.2586 1.9417 31.4236 1.29446 32.6534 0.776679C33.4301 0.453062 34.2715 0.323616 35.3718 0C34.9834 0.582509 34.7245 0.906125 34.4656 1.22974C32.6534 3.36561 30.7764 5.50147 29.2878 7.83151C27.2166 11.0029 25.0808 14.2391 23.2685 17.54C21.3268 21.035 19.9676 24.8537 19.4498 28.8018C18.6084 35.2741 19.9676 41.3581 24.1099 46.6007C25.7927 48.6719 27.605 50.6783 29.6114 52.4905C33.2359 55.8561 37.4429 58.4451 41.7794 60.9045C48.64 64.7232 55.889 67.7005 63.0733 70.8719C71.6815 74.6259 80.4191 78.3151 89.0273 82.1338C95.0466 84.8521 101.001 87.5705 106.632 91.0656C112.845 94.9489 118.476 99.5443 122.748 105.628C125.855 110.094 127.991 114.948 128.962 120.256C129.609 123.815 130.062 127.505 129.609 131.129C129.285 133.977 128.962 136.825 128.25 139.608C127.732 141.614 127.343 143.621 126.567 145.562C125.272 148.993 123.59 152.164 121.324 155.077C120.159 156.63 118.606 157.86 117.376 159.284C115.305 161.614 112.781 163.361 110.192 165.044C107.085 167.051 103.719 168.604 100.354 170.157C96.4058 172.034 92.0693 173.005 87.9917 174.494C86.762 174.947 85.5323 175.206 84.2378 175.529C84.0436 175.594 83.8495 175.529 83.3964 175.465Z" fill="#001448"/>
<path d="M325.92 174.429C328.444 172.746 330.904 171.322 333.104 169.51C335.628 167.439 338.023 165.174 340.288 162.844C342.877 160.125 344.949 156.889 347.084 153.718C347.667 152.876 348.249 152.1 348.767 151.193C349.932 148.993 350.968 146.728 352.133 144.592C353.88 141.42 355.045 137.99 356.275 134.624C356.922 132.877 357.634 131.129 358.217 129.317C358.67 127.958 358.929 126.534 359.317 125.11C359.447 124.528 359.77 124.01 359.835 123.427C360.288 121.291 360.612 119.156 361.065 117.02C361.388 115.531 361.777 114.107 362.035 112.618C362.294 111.065 362.424 109.576 362.618 108.023C362.747 107.246 362.812 106.405 362.942 105.628C363.071 104.658 363.136 103.687 363.265 102.716C363.395 101.745 363.589 100.839 363.718 99.868C363.848 98.2499 364.042 96.5671 364.042 94.9491C364.107 89.9006 364.171 84.7875 364.042 79.7391C363.977 77.6032 363.912 75.4027 363.589 73.2668C363.33 71.4545 363.006 69.6423 362.747 67.8948C362.489 66.212 362.424 64.4644 362.035 62.7816C361.712 61.293 362.1 59.7397 361.259 58.3157C360.935 57.798 361.259 56.9566 361.065 56.3741C360.158 53.591 359.511 50.8079 358.799 47.96C358.217 45.6947 357.505 43.5589 356.793 41.3583C356.34 39.9991 355.822 38.6399 355.304 37.2807C354.981 36.504 354.657 35.7921 354.333 35.0154C353.557 33.2032 352.909 31.3909 352.003 29.6434C350.838 27.3781 349.479 25.2422 348.185 23.0416C347.602 22.0061 347.149 20.9058 346.437 19.9996C341.195 12.9448 335.434 6.47249 327.797 1.94187C327.732 1.87715 327.603 1.81243 327.538 1.7477C327.214 1.48881 326.891 1.22992 326.308 0.776855C327.15 0.841579 327.667 0.776855 328.185 0.906302C330.321 1.22992 332.457 1.55353 334.593 2.0066C336.017 2.33021 337.441 2.78327 338.865 3.23634C339.641 3.49523 340.418 3.81884 341.195 4.07774C342.683 4.66025 344.301 5.11331 345.725 5.76054C351.033 8.34946 356.081 11.4562 360.547 15.4043C361.971 16.6988 363.459 17.9932 364.819 19.4171C370.903 25.8247 376.016 32.8148 379.77 40.8405C381.258 43.9472 382.747 47.1186 383.912 50.3548C385.595 55.0796 387.342 59.7397 388.054 64.7233C388.443 67.1828 389.09 69.5776 389.478 71.9723C389.737 73.3962 389.737 74.8202 389.866 76.2441C390.125 78.5094 390.514 80.71 390.578 82.9753C390.708 86.9234 390.773 90.8068 390.578 94.7549C390.384 98.1205 389.996 101.486 389.478 104.852C388.766 108.994 387.795 113.136 386.566 117.149C385.465 120.838 384.041 124.333 382.488 127.828C382.1 128.67 381.582 129.382 381.129 130.158C380.029 132.23 379.122 134.365 377.893 136.372C375.11 141.032 372.003 145.433 368.249 149.316C366.76 150.87 365.207 152.229 363.718 153.718C358.735 158.896 352.78 162.714 346.631 166.274C344.172 167.698 341.648 168.863 338.994 169.898C336.276 170.999 333.622 172.228 330.839 173.005C329.544 173.329 328.315 173.717 327.02 174.041C326.826 174.3 326.373 174.364 325.92 174.429Z" fill="#001448"/>
<path d="M271.035 0.776855C267.734 3.30106 264.433 5.69582 261.261 8.22002C260.226 9.06142 259.32 10.0323 258.478 11.0678C256.407 13.6568 254.336 16.2457 252.394 18.8993C250.129 21.8766 248.317 25.1128 246.699 28.4784C245.21 31.5204 243.657 34.4976 242.492 37.6043C240.615 42.4586 239.191 47.507 237.767 52.5554C237.12 54.9501 236.796 57.4096 236.343 59.8044C235.825 62.5228 235.307 65.1764 234.919 67.8948C234.595 70.1601 234.466 72.4254 234.336 74.626C234.142 79.3508 233.819 84.0108 233.883 88.7356C233.883 93.0721 234.272 97.4085 234.531 101.745C234.66 104.269 234.854 106.729 235.243 109.253C235.76 112.683 236.537 116.114 237.184 119.544C238.22 125.045 240.032 130.288 241.715 135.595C242.297 137.343 243.204 139.026 243.851 140.773C244.757 143.233 246.116 145.498 247.281 147.828C249.676 152.682 252.847 157.083 256.278 161.29C257.766 163.103 259.514 164.721 261.132 166.403C264.044 169.316 267.41 171.581 270.97 173.717C271.229 173.847 271.488 174.041 271.617 174.429C270.905 174.3 270.258 174.105 269.546 173.976C268.057 173.588 266.569 173.264 265.08 172.811C263.591 172.358 262.167 171.775 260.744 171.193C259.708 170.805 258.737 170.287 257.702 169.834C256.019 168.992 254.336 168.216 252.653 167.374C251.165 166.598 249.676 165.95 248.252 165.044C246.31 163.814 244.369 162.52 242.492 161.161C240.485 159.737 238.479 158.313 236.602 156.76C235.178 155.595 233.948 154.235 232.654 152.941C232.136 152.423 231.618 151.97 231.1 151.452C230.712 151.129 230.324 150.805 230 150.417C227.476 147.44 225.016 144.398 222.686 141.226C221.845 140.126 221.133 139.026 220.486 137.861C219.709 136.372 218.673 135.077 217.832 133.654C217.249 132.618 216.861 131.518 216.343 130.482C214.919 127.893 213.819 125.11 212.848 122.327C212.46 121.162 211.877 120.062 211.489 118.897C211.036 117.537 210.907 116.114 210.389 114.819C209.289 111.907 208.965 108.8 208.124 105.823C207.8 104.658 207.865 103.363 207.735 102.069C207.67 101.292 207.606 100.58 207.476 99.8033C207.217 97.7969 207.153 95.7905 207.088 93.784C206.958 91.7129 206.958 89.6418 206.958 87.5706C207.023 85.1759 207.153 82.7164 207.347 80.3216C207.412 79.4802 207.347 78.7035 207.412 77.8621C207.541 75.5968 207.865 73.3315 208.382 71.1309C208.706 69.6423 208.641 68.0889 209.03 66.6003C209.547 64.4644 209.871 62.3286 210.648 60.3222C211.424 58.4452 211.813 56.4388 212.395 54.5618C212.848 53.1379 213.237 51.714 213.754 50.2901C214.402 48.5425 215.114 46.7303 215.826 45.0475C216.214 44.1414 216.732 43.3647 217.185 42.5233C219.903 36.8924 223.075 31.5851 226.893 26.6661C228.317 24.8539 229.741 22.9769 231.23 21.2294C231.683 20.6469 232.33 20.1938 232.913 19.676C234.531 18.1227 236.084 16.5046 237.702 14.9512C238.22 14.4334 238.802 13.9157 239.45 13.592C241.585 12.4917 243.268 10.6795 245.404 9.51448C248.123 8.02585 250.841 6.47249 253.689 5.17803C255.825 4.20718 258.09 3.36578 260.42 2.848C263.591 2.07132 266.828 1.61826 269.999 1.03575C270.452 0.776855 270.776 0.841579 271.035 0.776855Z" fill="#001448"/>
<path d="M158.805 175.594C158.805 174.882 158.805 174.235 158.805 173.652C158.805 117.019 158.805 60.4514 158.805 3.81858C158.805 2.84773 158.675 1.9416 158.546 0.906032C158.999 0.906032 159.452 0.841309 159.97 0.841309C165.471 0.841309 170.973 0.841309 176.41 0.841309C178.028 0.841309 178.028 0.841309 178.028 2.52411C178.028 59.8041 178.028 117.084 178.028 174.364C178.028 174.753 178.028 175.141 178.028 175.659C171.62 175.594 165.277 175.594 158.805 175.594Z" fill="#001448"/>
<path d="M0.621094 175.529C0.621094 158.96 0.621094 142.585 0.621094 126.146C0.75054 126.146 0.94471 126.146 0.94471 126.21C12.9832 142.585 25.0865 158.96 37.125 175.335C36.0247 175.723 4.63393 175.918 0.621094 175.529Z" fill="#001448"/>
<path d="M457.761 175.594C445.334 175.594 433.296 175.594 421.128 175.594C421.128 159.025 421.128 142.456 421.128 125.628C433.361 142.327 445.464 158.896 457.761 175.594Z" fill="#001448"/>
<path d="M132.398 218.117C132.398 225.819 132.398 233.586 132.398 241.352C130.197 241.352 128.126 241.352 125.925 241.352C125.925 229.508 125.925 217.664 125.925 205.69C127.608 205.69 129.291 205.625 130.974 205.755C131.362 205.755 131.815 206.273 132.139 206.661C135.375 210.609 138.546 214.492 141.782 218.44C144.242 221.418 146.701 224.46 149.096 227.437C149.679 228.149 150.132 228.861 150.65 229.573C150.844 229.508 150.908 229.443 150.908 229.443C150.973 229.443 150.973 229.379 150.973 229.314C150.973 229.185 150.973 229.12 150.973 228.99C150.973 221.288 150.973 213.586 150.973 205.755C153.174 205.755 155.31 205.755 157.51 205.755C157.51 217.599 157.51 229.443 157.51 241.417C155.698 241.417 154.015 241.417 152.332 241.417C152.009 241.417 151.556 241.158 151.362 240.835C149.29 238.31 147.349 235.657 145.278 233.133C142.883 230.22 140.423 227.372 138.029 224.46C136.799 222.971 135.698 221.353 134.469 219.864C133.951 219.217 133.174 218.764 132.398 218.117Z" fill="#001448"/>
<path d="M288.251 229.702C290.969 233.651 293.558 237.34 296.277 241.223C295.888 241.288 295.629 241.417 295.37 241.417C293.688 241.417 291.94 241.417 290.257 241.417C289.481 241.417 288.898 241.223 288.445 240.511C287.863 239.54 287.28 238.569 286.633 237.663C285.015 235.463 283.397 233.262 281.714 230.997C278.737 230.997 275.695 230.997 272.523 230.997C272.523 232.68 272.523 234.362 272.523 236.045C272.523 237.728 272.523 239.476 272.523 241.223C270.323 241.223 268.187 241.223 265.921 241.223C265.921 229.444 265.921 217.599 265.921 205.69C266.31 205.69 266.633 205.625 267.022 205.625C271.876 205.625 276.73 205.496 281.584 205.625C285.144 205.755 288.574 206.467 291.487 208.732C294.011 210.674 295.176 213.198 295.565 216.305C295.759 217.923 295.953 219.411 295.565 221.029C294.788 224.136 293.364 226.855 290.451 228.473C289.675 229.055 288.963 229.379 288.251 229.702ZM272.588 225.366C274.335 225.625 280.549 225.56 282.749 225.301C285.856 224.913 288.121 223.424 288.898 220.188C289.545 217.534 288.639 213.327 284.885 212.227C283.073 211.709 281.325 211.45 279.513 211.386C277.83 211.321 276.083 211.386 274.4 211.386C273.818 211.386 273.17 211.386 272.588 211.386C272.588 216.111 272.588 220.771 272.588 225.366Z" fill="#001448"/>
<path d="M206.053 225.949C206.053 229.314 206.053 232.486 206.053 235.786C212.719 235.786 219.386 235.786 226.117 235.786C226.117 237.728 226.117 239.476 226.117 241.353C217.25 241.353 208.318 241.353 199.386 241.353C199.386 229.444 199.386 217.664 199.386 205.755C208.059 205.755 216.667 205.755 225.405 205.755C225.405 207.567 225.405 209.315 225.405 211.256C218.997 211.256 212.654 211.256 206.053 211.256C206.053 212.874 205.988 214.298 205.988 215.787C205.988 217.276 205.988 218.764 205.988 220.447C211.813 220.447 217.509 220.447 223.269 220.447C223.269 222.389 223.269 224.072 223.269 225.949C217.573 225.949 211.878 225.949 206.053 225.949Z" fill="#001448"/>
<path d="M59.4544 205.755C68.1273 205.755 76.7355 205.755 85.4084 205.755C85.4084 207.632 85.4084 209.379 85.4084 211.321C78.9361 211.321 72.5932 211.321 66.0561 211.321C66.0561 214.428 66.0561 217.405 66.0561 220.512C71.7518 220.512 77.3827 220.512 83.1431 220.512C83.1431 222.389 83.1431 224.136 83.1431 226.013C77.4474 226.013 71.7518 226.013 65.9914 226.013C65.9914 229.314 65.9914 232.55 65.9914 235.851C72.6579 235.851 79.2597 235.851 85.9909 235.851C85.9909 237.793 85.9909 239.54 85.9909 241.417C77.1238 241.417 68.3215 241.417 59.3896 241.417C59.4544 229.508 59.4544 217.729 59.4544 205.755Z" fill="#001448"/>
<path d="M361.906 215.011C360.482 213.91 359.123 212.422 357.052 211.839C353.492 210.868 349.997 210.674 346.567 212.292C341.907 214.493 339.836 218.182 339.577 223.23C339.447 225.949 340.224 228.473 341.519 230.803C341.842 231.385 342.425 231.839 342.878 232.356C344.237 233.715 345.661 235.075 347.603 235.592C350.386 236.304 353.169 236.434 355.952 235.787C357.246 235.528 358.67 235.398 359.77 233.845C359.77 230.609 359.77 226.984 359.77 223.23C361.906 223.23 363.913 223.23 365.984 223.23C366.049 223.554 366.113 223.878 366.113 224.266C366.113 228.279 366.113 232.356 366.113 236.369C366.113 237.146 365.919 237.664 365.207 238.117C363.266 239.346 361.259 240.317 359.123 241.029C356.34 241.935 353.492 241.935 350.645 242.065C348.962 242.13 347.279 241.871 345.726 241.353C344.107 240.835 342.554 239.864 341.065 239.023C340.159 238.505 339.189 237.922 338.477 237.146C337.312 235.981 336.146 234.751 335.37 233.327C334.852 232.486 334.27 231.644 334.011 230.674C333.428 228.602 332.975 226.531 332.91 224.395C332.846 221.612 333.169 218.894 334.075 216.24C334.27 215.658 334.658 215.14 334.981 214.687C335.952 213.263 336.729 211.71 337.894 210.545C339.059 209.38 340.483 208.409 341.972 207.567C345.143 205.885 348.638 204.849 352.263 205.108C356.729 205.431 361.194 206.079 364.819 209.121C364.948 209.25 365.143 209.38 365.272 209.509C366.696 210.804 366.696 210.868 365.207 212.098C364.042 213.069 363.071 213.975 361.906 215.011Z" fill="#001448"/>
<path d="M489.281 241.418C486.821 241.418 484.621 241.418 482.291 241.418C481.061 238.764 479.831 236.046 478.537 233.198C472.841 233.198 466.951 233.198 460.932 233.198C459.767 235.851 458.667 238.57 457.437 241.353C455.236 241.353 453.036 241.353 450.641 241.353C451.029 240.188 451.353 239.088 451.806 238.052C452.453 236.563 453.295 235.14 453.942 233.651C454.201 233.133 454.33 232.486 454.525 231.968C455.236 230.479 455.948 228.991 456.66 227.502C457.89 224.784 458.99 222.001 460.22 219.218C460.803 217.923 461.45 216.758 462.032 215.464C462.874 213.651 463.586 211.774 464.427 209.962C464.945 208.797 465.527 207.697 465.981 206.532C466.239 205.885 466.692 205.69 467.275 205.69C468.958 205.69 470.705 205.69 472.388 205.69C473.035 205.69 473.23 206.014 473.424 206.532C474.136 208.15 474.912 209.768 475.624 211.386C476.336 212.875 476.983 214.428 477.695 215.917C478.472 217.6 479.249 219.347 480.025 221.095C480.737 222.713 481.385 224.331 482.097 225.949C482.355 226.596 482.744 227.179 483.003 227.826C484.556 231.256 486.109 234.686 487.663 238.117C488.181 239.217 488.698 240.253 489.281 241.418ZM476.401 227.761C474.2 222.713 472.064 217.729 469.864 212.681C469.605 213.069 469.346 213.328 469.152 213.651C468.699 214.493 468.311 215.334 467.987 216.176C467.275 217.988 466.628 219.8 465.916 221.548C465.592 222.389 465.139 223.166 464.815 223.942C464.298 225.172 463.78 226.402 463.197 227.696C467.663 227.761 471.87 227.761 476.401 227.761Z" fill="#001448"/>
<path d="M129.162 37.6044C121.395 25.5011 113.952 13.2684 106.573 0.776855C114.146 0.776855 121.589 0.776855 129.162 0.776855C129.162 13.0743 129.162 25.3717 129.162 37.6044Z" fill="#001448"/>
<path d="M406.824 241.353C406.889 240.188 406.954 239.282 406.954 238.311C406.954 228.084 406.954 217.858 406.954 207.567C406.954 206.985 406.954 206.467 406.954 205.755C409.154 205.755 411.29 205.755 413.426 205.755C413.75 207.179 413.685 240.188 413.361 241.417C411.549 241.417 409.672 241.417 407.795 241.417C407.471 241.417 407.148 241.353 406.824 241.353Z" fill="#001448"/>
</svg>
