<svg width="70" height="69" viewBox="0 0 70 69" fill="none" xmlns="http://www.w3.org/2000/svg">
<path d="M35 0C15.9905 0 0.5 15.4905 0.5 34.5C0.5 53.5095 15.9905 69 35 69C54.0095 69 69.5 53.5095 69.5 34.5C69.5 15.4905 54.0095 0 35 0ZM51.491 26.565L31.9295 46.1265C31.4443 46.6111 30.7867 46.8832 30.101 46.8832C29.4153 46.8832 28.7577 46.6111 28.2725 46.1265L18.509 36.363C18.0278 35.8761 17.7579 35.2191 17.7579 34.5345C17.7579 33.8499 18.0278 33.1929 18.509 32.706C19.5095 31.7055 21.1655 31.7055 22.166 32.706L30.101 40.641L47.834 22.908C48.8345 21.9075 50.4905 21.9075 51.491 22.908C52.4915 23.9085 52.4915 25.53 51.491 26.565Z" fill="#384974"/>
</svg>
