<svg width="94" height="114" viewBox="0 0 94 114" fill="none" xmlns="http://www.w3.org/2000/svg">
<g filter="url(#filter0_d_705_1559)">
<path d="M27.613 94H66.389C76.601 94 80.671 87.747 81.152 80.125L83.076 49.563C83.1959 47.668 82.9259 45.7685 82.2826 43.982C81.6394 42.1954 80.6366 40.5598 79.3362 39.1762C78.0358 37.7925 76.4654 36.6903 74.7221 35.9376C72.9789 35.1849 71.0998 34.7977 69.201 34.8C66.944 34.8 64.872 33.505 63.836 31.507L61.172 26.142C59.47 22.775 55.03 20 51.256 20H42.783C38.972 20 34.532 22.775 32.83 26.142L30.166 31.507C29.13 33.505 27.058 34.8 24.801 34.8C16.772 34.8 10.408 41.571 10.926 49.563L12.85 80.125C13.294 87.747 17.401 94 27.613 94ZM41.451 42.2H52.551H41.451Z" fill="#D9D9D9"/>
<path d="M41.451 42.2H52.551M27.613 94H66.389C76.601 94 80.671 87.747 81.152 80.125L83.076 49.563C83.1959 47.668 82.9259 45.7685 82.2826 43.982C81.6394 42.1954 80.6366 40.5598 79.3362 39.1762C78.0358 37.7925 76.4654 36.6903 74.7221 35.9376C72.9789 35.1849 71.0998 34.7977 69.201 34.8C66.944 34.8 64.872 33.505 63.836 31.507L61.172 26.142C59.47 22.775 55.03 20 51.256 20H42.783C38.972 20 34.532 22.775 32.83 26.142L30.166 31.507C29.13 33.505 27.058 34.8 24.801 34.8C16.772 34.8 10.408 41.571 10.926 49.563L12.85 80.125C13.294 87.747 17.401 94 27.613 94Z" stroke="#384974" stroke-width="2" stroke-linecap="round" stroke-linejoin="round"/>
<path d="M47.002 79.2002C53.625 79.2002 59.027 73.7982 59.027 67.1752C59.027 60.5522 53.625 55.1502 47.002 55.1502C40.379 55.1502 34.9771 60.5522 34.9771 67.1752C34.9771 73.7982 40.379 79.2002 47.002 79.2002Z" fill="white" stroke="#384974" stroke-width="2" stroke-linecap="round" stroke-linejoin="round"/>
</g>
<defs>
<filter id="filter0_d_705_1559" x="5.89648" y="19" width="82.207" height="84" filterUnits="userSpaceOnUse" color-interpolation-filters="sRGB">
<feFlood flood-opacity="0" result="BackgroundImageFix"/>
<feColorMatrix in="SourceAlpha" type="matrix" values="0 0 0 0 0 0 0 0 0 0 0 0 0 0 0 0 0 0 127 0" result="hardAlpha"/>
<feOffset dy="4"/>
<feGaussianBlur stdDeviation="2"/>
<feComposite in2="hardAlpha" operator="out"/>
<feColorMatrix type="matrix" values="0 0 0 0 0 0 0 0 0 0 0 0 0 0 0 0 0 0 0.25 0"/>
<feBlend mode="normal" in2="BackgroundImageFix" result="effect1_dropShadow_705_1559"/>
<feBlend mode="normal" in="SourceGraphic" in2="effect1_dropShadow_705_1559" result="shape"/>
</filter>
</defs>
</svg>
