<svg viewBox="0 0 88 90" fill="none" xmlns="http://www.w3.org/2000/svg">
<path d="M76 49C76 55.6562 74.1363 61.9574 70.8525 67.2824C67.7238 72.5408 63.2796 76.8937 57.9575 79.9127C52.6354 82.9317 46.6188 84.5126 40.5 84.4999C34.3813 84.5126 28.3647 82.9317 23.0426 79.9127C17.7205 76.8937 13.2763 72.5408 10.1476 67.2824C6.76922 61.7837 4.98696 55.4536 5.00007 49C5.00007 29.3862 20.8863 13.5 40.5 13.5C60.1138 13.5 76 29.3862 76 49Z" stroke="#384974" stroke-width="10" stroke-miterlimit="10" stroke-linecap="round" stroke-linejoin="round"/>
<path d="M24 40.7534C35.3478 44.6818 40.4419 63.5 40.4419 63.5C40.4419 63.5 51 22 79 9" stroke="#384974" stroke-width="16" stroke-miterlimit="3.8637" stroke-linecap="round" stroke-linejoin="round"/>
<path d="M63.8412 75.6249C66.5925 73.3174 68.9887 70.4774 70.8524 67.2824C74.1362 61.9574 75.9999 55.6562 75.9999 49C75.9999 29.3862 60.1137 13.5 40.5 13.5C29.85 13.5 20.3537 18.2038 13.875 25.57" stroke="#384974" stroke-width="10" stroke-linecap="round" stroke-linejoin="round"/>
</svg>