<svg width="83" height="83" viewBox="0 0 83 83" fill="none" xmlns="http://www.w3.org/2000/svg">
<path d="M41.5 15C26.8985 15 15 26.8985 15 41.5C15 56.1015 26.8985 68 41.5 68C56.1015 68 68 56.1015 68 41.5C68 26.8985 56.1015 15 41.5 15ZM54.167 35.405L39.1415 50.4305C38.7688 50.8027 38.2637 51.0118 37.737 51.0118C37.2103 51.0118 36.7052 50.8027 36.3325 50.4305L28.833 42.931C28.4634 42.557 28.2561 42.0523 28.2561 41.5265C28.2561 41.0007 28.4634 40.496 28.833 40.122C29.6015 39.3535 30.8735 39.3535 31.642 40.122L37.737 46.217L51.358 32.596C52.1265 31.8275 53.3985 31.8275 54.167 32.596C54.9355 33.3645 54.9355 34.61 54.167 35.405Z" fill="white"/>
</svg>
