<svg width="54" height="56" viewBox="0 0 54 56" fill="none" xmlns="http://www.w3.org/2000/svg">
<path d="M34.9546 14.0347C38.3821 14.0347 41.1382 16.8085 41.1382 20.2182C41.1382 23.5573 38.4881 26.2781 35.1843 26.4018C35.0317 26.3841 34.8776 26.3841 34.725 26.4018M38.3644 42.3022C39.6364 42.0372 40.8378 41.5249 41.8272 40.7652C44.5833 38.6981 44.5833 35.2884 41.8272 33.2213C40.8555 32.4793 39.6718 31.9846 38.4174 31.7019M22.1459 26.1721C21.9692 26.1544 21.7572 26.1544 21.5629 26.1721C19.5351 26.1032 17.6136 25.2478 16.2055 23.7869C14.7974 22.3261 14.0132 20.3745 14.019 18.3455C14.019 14.017 17.5171 10.5013 21.8632 10.5013C23.9413 10.4638 25.9492 11.2534 27.4451 12.6963C28.941 14.1392 29.8025 16.1173 29.84 18.1953C29.8775 20.2734 29.0879 22.2813 27.645 23.7772C26.2021 25.2731 24.224 26.1346 22.1459 26.1721ZM13.3123 32.6913C9.03685 35.5534 9.03685 40.2175 13.3123 43.0619C18.1708 46.3127 26.1387 46.3127 30.9972 43.0619C35.2726 40.1998 35.2726 35.5357 30.9972 32.6913C26.1564 29.4582 18.1885 29.4582 13.3123 32.6913Z" stroke="black" stroke-width="1.5" stroke-linecap="round" stroke-linejoin="round"/>
<rect x="0.605713" y="1" width="52.7885" height="54" rx="26.3943" stroke="#333333"/>
</svg>
