<svg width="60" height="61" viewBox="0 0 60 61" fill="none" xmlns="http://www.w3.org/2000/svg">
<path d="M41.1112 21.7737C40.9717 21.7541 40.8301 21.7541 40.6906 21.7737C39.1948 21.7259 37.7769 21.1117 36.7375 20.0612C35.6981 19.0107 35.1189 17.6066 35.1229 16.1466C35.1229 13.04 37.7064 10.5 40.9109 10.5C44.0953 10.5 46.6989 13.0205 46.6989 16.1466C46.6946 17.6075 46.1101 19.01 45.0681 20.0593C44.0261 21.1086 42.6078 21.7231 41.1112 21.7737ZM47.6442 35.3138C45.4011 36.7792 42.2568 37.3262 39.3527 36.955C40.1138 35.3529 40.5143 33.5749 40.5344 31.6992C40.5344 29.7453 40.0938 27.8892 39.2526 26.2675C42.2167 25.8767 45.3611 26.4238 47.6242 27.8892C50.7886 29.9212 50.7886 33.2622 47.6442 35.3138ZM18.9003 21.7737C19.0405 21.7541 19.1807 21.7541 19.3209 21.7737C20.8167 21.7259 22.2347 21.1117 23.2741 20.0612C24.3134 19.0107 24.8926 17.6066 24.8887 16.1466C24.8887 15.4064 24.7392 14.6734 24.4488 13.9895C24.1585 13.3056 23.7329 12.6842 23.1963 12.1608C22.6598 11.6373 22.0228 11.2221 21.3218 10.9388C20.6208 10.6556 19.8694 10.5098 19.1106 10.5098C18.3519 10.5098 17.6005 10.6556 16.8995 10.9388C16.1985 11.2221 15.5615 11.6373 15.025 12.1608C14.4884 12.6842 14.0628 13.3056 13.7724 13.9895C13.4821 14.6734 13.3326 15.4064 13.3326 16.1466C13.3326 19.1946 15.796 21.676 18.9003 21.7737ZM19.1227 31.6992C19.1227 33.5944 19.5432 35.3919 20.3043 37.0136C17.4804 37.3067 14.5363 36.7205 12.3733 35.3333C9.2089 33.2818 9.2089 29.9407 12.3733 27.8892C14.5163 26.4824 17.5405 25.9158 20.3844 26.2284C19.5633 27.8696 19.1227 29.7258 19.1227 31.6992ZM30.2761 37.5998C30.1031 37.5802 29.9284 37.5802 29.7554 37.5998C27.9746 37.5414 26.287 36.8094 25.0497 35.5585C23.8124 34.3077 23.1226 32.6363 23.1262 30.8981C23.1462 27.1858 26.2105 24.1769 30.0358 24.1769C33.8411 24.1769 36.9254 27.1858 36.9254 30.8981C36.9243 32.6383 36.2302 34.31 34.9896 35.5604C33.749 36.8108 32.0589 37.542 30.2761 37.5998ZM23.7671 41.6442C20.7429 43.6176 20.7429 46.861 23.7671 48.8148C27.2119 51.0617 32.8597 51.0617 36.3045 48.8148C39.3287 46.8414 39.3287 43.5981 36.3045 41.6442C32.8797 39.3973 27.2319 39.3973 23.7671 41.6442Z" fill="#333333"/>
<rect x="1" y="1.5" width="58" height="58" rx="29" stroke="#333333" stroke-width="2"/>
</svg>
