<svg width="56" height="56" viewBox="0 0 56 56" fill="none" xmlns="http://www.w3.org/2000/svg">
<path d="M21.0105 26.9666C21.0105 28.3154 22.0615 29.419 23.3403 29.419H25.968C27.0891 29.419 28 28.4556 28 27.2819C28 26.0031 27.4394 25.5477 26.6161 25.2499L22.4119 23.7784C21.5711 23.4806 21.0105 23.0251 21.0105 21.7464C21.0105 20.5727 21.9214 19.6092 23.0425 19.6092H25.6702C26.9665 19.6267 28.0175 20.7128 28.0175 22.0617M24.514 29.5066V30.8029M24.514 18.2253V19.5917" stroke="black" stroke-width="1.5" stroke-linecap="round" stroke-linejoin="round"/>
<path d="M29.7342 41.8213C31.3108 44.046 33.8859 45.5 36.8288 45.5C41.6111 45.5 45.5 41.6111 45.5 36.8288C45.5 33.9209 44.0636 31.3458 41.8739 29.7693M24.4965 38.493C28.2086 38.493 31.7687 37.0184 34.3935 34.3935C37.0184 31.7687 38.493 28.2086 38.493 24.4965C38.493 20.7844 37.0184 17.2243 34.3935 14.5995C31.7687 11.9746 28.2086 10.5 24.4965 10.5C20.7844 10.5 17.2243 11.9746 14.5995 14.5995C11.9746 17.2243 10.5 20.7844 10.5 24.4965C10.5 28.2086 11.9746 31.7687 14.5995 34.3935C17.2243 37.0184 20.7844 38.493 24.4965 38.493Z" stroke="black" stroke-width="1.5" stroke-linecap="round" stroke-linejoin="round"/>
<rect x="1" y="1" width="54" height="54" rx="27" stroke="#333333"/>
</svg>
