<svg width="56" height="56" viewBox="0 0 56 56" fill="none" xmlns="http://www.w3.org/2000/svg">
<path d="M23.7083 31.1112C23.7083 32.8087 25.0208 34.1737 26.6308 34.1737H29.9208C31.3208 34.1737 32.4583 32.9837 32.4583 31.4962C32.4583 29.9037 31.7583 29.3262 30.7258 28.9587L25.4583 27.1212C24.4258 26.7537 23.7258 26.1937 23.7258 24.5837C23.7258 23.1137 24.8633 21.9062 26.2633 21.9062H29.5533C31.1633 21.9062 32.4758 23.2712 32.4758 24.9687M28.0833 20.1737V35.9237" stroke="white" stroke-width="1.5" stroke-linecap="round" stroke-linejoin="round"/>
<path d="M45.5833 28.0487C45.5833 37.7087 37.7433 45.5487 28.0833 45.5487C18.4233 45.5487 10.5833 37.7087 10.5833 28.0487C10.5833 18.3887 18.4233 10.5487 28.0833 10.5487" stroke="white" stroke-width="1.5" stroke-linecap="round" stroke-linejoin="round"/>
<path d="M36.8333 12.2987V19.2987M36.8333 19.2987H43.8333M36.8333 19.2987L45.5833 10.5487" stroke="white" stroke-width="1.5" stroke-linecap="round" stroke-linejoin="round"/>
<rect x="1.08334" y="1.04871" width="54" height="54" rx="27" stroke="white"/>
</svg>
