<svg width="116" height="135" viewBox="0 0 116 135" fill="none" xmlns="http://www.w3.org/2000/svg">
<path d="M43.749 58C46.2686 58 48.6849 56.9991 50.4665 55.2175C52.2481 53.4359 53.249 51.0196 53.249 48.5C53.249 45.9804 52.2481 43.5641 50.4665 41.7825C48.6849 40.0009 46.2686 39 43.749 39C41.2295 39 38.8131 40.0009 37.0315 41.7825C35.2499 43.5641 34.249 45.9804 34.249 48.5C34.249 51.0196 35.2499 53.4359 37.0315 55.2175C38.8131 56.9991 41.2295 58 43.749 58Z" fill="#D9D9D9" stroke="#384974" stroke-width="1.5" stroke-linecap="round" stroke-linejoin="round"/>
<path d="M62.75 20H43.75C20 20 10.5 29.5 10.5 53.25V81.75C10.5 105.5 20 115 43.75 115H72.25C96 115 105.5 105.5 105.5 81.75V58" stroke="#384974" stroke-width="1.5" stroke-linecap="round" stroke-linejoin="round"/>
<path d="M105.499 86.833V76.5255L97.5996 70.5132C96.5996 69.5132 93.8796 67.5132 90.9996 67.5132C88.1196 67.5132 84.9996 69.5132 83.7996 70.5132L66.9996 84.9132C65.5996 86.3132 61.7196 89.1132 57.3996 89.1132C53.0796 89.1132 49.9996 86.3132 48.9996 84.9132C48.1996 84.3132 45.7596 83.1132 42.3996 83.1132C39.0396 83.1132 35.3996 85.5931 33.9996 86.833L13.6816 100.513C18.0673 111.457 31.1206 114.673 37.0991 114.913H72.3996C103.562 114.913 104.864 96.0401 105.497 86.8672L105.499 86.833Z" fill="#D9D9D9" stroke="#384974" stroke-width="1.5" stroke-linecap="round" stroke-linejoin="round"/>
<path d="M76.999 34.2028L83.934 41.1378L102.459 22.6128" stroke="#27B410" stroke-width="4" stroke-linecap="round" stroke-linejoin="round"/>
</svg>
