<svg width="106" height="105" viewBox="0 0 106 105" fill="none" xmlns="http://www.w3.org/2000/svg">
<g filter="url(#filter0_d_45_472)">
<path d="M99.0984 72.0655L84.2275 37.3351C79.1914 25.5524 69.9268 25.0773 63.7028 36.2898L54.7233 52.491C50.1623 60.7104 41.6578 61.4231 35.7665 54.0589L34.7212 52.7286C28.5923 45.0318 19.9454 45.982 15.5268 54.7715L7.35498 71.1628C1.60617 82.5654 9.92057 96.011 22.6535 96.011H83.2773C95.6301 96.011 103.945 83.4206 99.0984 72.0655ZM29.21 29.4958C32.9902 29.4958 36.6155 27.9941 39.2885 25.3211C41.9616 22.6481 43.4632 19.0227 43.4632 15.2425C43.4632 11.4623 41.9616 7.83694 39.2885 5.16394C36.6155 2.49094 32.9902 0.989258 29.21 0.989258C25.4298 0.989258 21.8044 2.49094 19.1314 5.16394C16.4584 7.83694 14.9567 11.4623 14.9567 15.2425C14.9567 19.0227 16.4584 22.6481 19.1314 25.3211C21.8044 27.9941 25.4298 29.4958 29.21 29.4958Z" fill="#D9D9D9"/>
<path d="M99.0984 72.0655L84.2275 37.3351C79.1914 25.5524 69.9268 25.0773 63.7028 36.2898L54.7233 52.491C50.1623 60.7104 41.6578 61.4231 35.7665 54.0589L34.7212 52.7286C28.5923 45.0318 19.9454 45.982 15.5268 54.7715L7.35498 71.1628C1.60617 82.5654 9.92057 96.011 22.6535 96.011H83.2773C95.6301 96.011 103.945 83.4206 99.0984 72.0655ZM29.21 29.4958C32.9902 29.4958 36.6155 27.9941 39.2885 25.3211C41.9616 22.6481 43.4632 19.0227 43.4632 15.2425C43.4632 11.4623 41.9616 7.83694 39.2885 5.16394C36.6155 2.49094 32.9902 0.989258 29.21 0.989258C25.4298 0.989258 21.8044 2.49094 19.1314 5.16394C16.4584 7.83694 14.9567 11.4623 14.9567 15.2425C14.9567 19.0227 16.4584 22.6481 19.1314 25.3211C21.8044 27.9941 25.4298 29.4958 29.21 29.4958Z" stroke="#384974" stroke-width="1.5" stroke-linecap="round" stroke-linejoin="round"/>
</g>
<defs>
<filter id="filter0_d_45_472" x="0.749023" y="0.239258" width="104.502" height="104.521" filterUnits="userSpaceOnUse" color-interpolation-filters="sRGB">
<feFlood flood-opacity="0" result="BackgroundImageFix"/>
<feColorMatrix in="SourceAlpha" type="matrix" values="0 0 0 0 0 0 0 0 0 0 0 0 0 0 0 0 0 0 127 0" result="hardAlpha"/>
<feOffset dy="4"/>
<feGaussianBlur stdDeviation="2"/>
<feComposite in2="hardAlpha" operator="out"/>
<feColorMatrix type="matrix" values="0 0 0 0 0 0 0 0 0 0 0 0 0 0 0 0 0 0 0.25 0"/>
<feBlend mode="normal" in2="BackgroundImageFix" result="effect1_dropShadow_45_472"/>
<feBlend mode="normal" in="SourceGraphic" in2="effect1_dropShadow_45_472" result="shape"/>
</filter>
</defs>
</svg>
