<svg width="22" height="22" viewBox="0 0 22 22" fill="none" xmlns="http://www.w3.org/2000/svg">
<path d="M14 21.75H9.5V14.5H8.55C7.97 14.5 7.5 14.03 7.5 13.45V11.55C7.5 10.97 7.97 10.5 8.55 10.5H9.5V8C9.5 5.93 11.18 4.25 13.25 4.25H15.95C16.53 4.25 17 4.72 17 5.3V7.7C17 8.28 16.53 8.75 15.95 8.75H14V10.5H15.88C16.0351 10.4992 16.1884 10.5329 16.3288 10.5987C16.4692 10.6645 16.5932 10.7608 16.6918 10.8804C16.7904 11.0001 16.8611 11.1402 16.8989 11.2906C16.9366 11.441 16.9404 11.5979 16.91 11.75L16.53 13.65C16.43 14.14 16 14.49 15.5 14.49H14V21.75ZM11 20.25H12.5V13H15.14L15.34 12H12.51V8.3C12.51 7.72 12.98 7.25 13.56 7.25H15.51V5.75H13.25C12.01 5.75 11 6.76 11 8V12H9V13H11V20.25Z" fill="white"/>
<path d="M14.25 21.75H8.25C2.82 21.75 0.5 19.43 0.5 14V8C0.5 2.57 2.82 0.25 8.25 0.25H14.25C19.68 0.25 22 2.57 22 8V14C22 19.43 19.68 21.75 14.25 21.75ZM8.25 1.75C3.64 1.75 2 3.39 2 8V14C2 18.61 3.64 20.25 8.25 20.25H14.25C18.86 20.25 20.5 18.61 20.5 14V8C20.5 3.39 18.86 1.75 14.25 1.75H8.25Z" fill="white"/>
</svg>
