<svg width="10" height="20" viewBox="0 0 10 20" fill="none" xmlns="http://www.w3.org/2000/svg">
<path d="M0.869653 20C0.648664 20 0.427675 19.9193 0.253209 19.7462C0.0909797 19.5834 0 19.3637 0 19.1348C0 18.9059 0.0909797 18.6862 0.253209 18.5234L7.83663 11.0022C8.39492 10.4485 8.39492 9.54867 7.83663 8.99495L0.253209 1.47368C0.0909797 1.31087 0 1.0912 0 0.862293C0 0.63339 0.0909797 0.413713 0.253209 0.250901C0.590509 -0.0836337 1.1488 -0.0836337 1.4861 0.250901L9.06952 7.77217C9.6627 8.36049 10 9.15645 10 9.99856C10 10.8407 9.67433 11.6366 9.06952 12.2249L1.4861 19.7462C1.31163 19.9077 1.09064 20 0.869653 20Z" fill="black"/>
</svg>
