<svg width="42" height="47" viewBox="0 0 42 47" fill="none" xmlns="http://www.w3.org/2000/svg">
<path d="M36.5556 23.8736V10.5403C36.5556 5.62915 36.5556 1.65137 27.6667 1.65137H14.3333C5.44444 1.65137 5.44444 5.62915 5.44444 10.5403V23.8736M9.88889 23.8736C1 23.8736 1 27.8514 1 32.7625V34.9847C1 41.118 1 46.0958 12.1111 46.0958H29.8889C38.7778 46.0958 41 41.118 41 34.9847V32.7625C41 27.8514 41 23.8736 32.1111 23.8736C29.8889 23.8736 29.2667 24.3403 28.1111 25.2069L25.8444 27.6069C25.2213 28.2698 24.469 28.798 23.6339 29.1591C22.7988 29.5202 21.8987 29.7065 20.9889 29.7065C20.0791 29.7065 19.1789 29.5202 18.3439 29.1591C17.5088 28.798 16.7565 28.2698 16.1333 27.6069L13.8889 25.2069C12.7333 24.3403 12.1111 23.8736 9.88889 23.8736Z" stroke="white" stroke-width="1.5" stroke-miterlimit="10" stroke-linecap="round" stroke-linejoin="round"/>
<path d="M17.7776 17.7165H25.1776M15.9331 11.0498H27.0442" stroke="white" stroke-width="1.5" stroke-linecap="round" stroke-linejoin="round"/>
</svg>
