<svg width="56" height="56" viewBox="0 0 56 56" fill="none" xmlns="http://www.w3.org/2000/svg">
<path d="M27.9998 39.2773C31.0167 39.2773 33.9099 38.0788 36.0431 35.9456C38.1764 33.8124 39.3748 30.9191 39.3748 27.9023C39.3748 24.8854 38.1764 21.9922 36.0431 19.8589C33.9099 17.7257 31.0167 16.5273 27.9998 16.5273C24.983 16.5273 22.0897 17.7257 19.9565 19.8589C17.8233 21.9922 16.6248 24.8854 16.6248 27.9023C16.6248 30.9191 17.8233 33.8124 19.9565 35.9456C22.0897 38.0788 24.983 39.2773 27.9998 39.2773Z" stroke="#333333" stroke-width="1.5" stroke-linecap="round" stroke-linejoin="round"/>
<path d="M40.495 40.3975L40.2675 40.17M40.2675 15.635L40.495 15.4075M15.505 40.3975L15.7325 40.17M28 10.5425V10.4025M28 45.4025V45.2625M10.64 27.9025H10.5M45.5 27.9025H45.36M15.7325 15.635L15.505 15.4075" stroke="#333333" stroke-width="2" stroke-linecap="round" stroke-linejoin="round"/>
<rect x="1" y="0.902466" width="54" height="54" rx="27" stroke="#333333"/>
</svg>
