<svg width="22" height="22" viewBox="0 0 22 22" fill="none" xmlns="http://www.w3.org/2000/svg">
<path d="M13.75 21.75H7.75C2.32 21.75 0 19.43 0 14V8C0 2.57 2.32 0.25 7.75 0.25H13.75C19.18 0.25 21.5 2.57 21.5 8V14C21.5 19.43 19.18 21.75 13.75 21.75ZM7.75 1.75C3.14 1.75 1.5 3.39 1.5 8V14C1.5 18.61 3.14 20.25 7.75 20.25H13.75C18.36 20.25 20 18.61 20 14V8C20 3.39 18.36 1.75 13.75 1.75H7.75Z" fill="white"/>
<path d="M10.75 15.25C9.62364 15.2474 8.54417 14.7988 7.74771 14.0023C6.95126 13.2059 6.50264 12.1264 6.5 11C6.50264 9.87368 6.95126 8.79421 7.74771 7.99776C8.54417 7.2013 9.62364 6.75268 10.75 6.75004C11.8764 6.75268 12.9558 7.2013 13.7523 7.99776C14.5487 8.79421 14.9974 9.87368 15 11C14.9974 12.1264 14.5487 13.2059 13.7523 14.0023C12.9558 14.7988 11.8764 15.2474 10.75 15.25ZM10.75 8.25004C9.23 8.25004 8 9.48004 8 11C8 12.52 9.23 13.75 10.75 13.75C12.27 13.75 13.5 12.52 13.5 11C13.5 9.48004 12.27 8.25004 10.75 8.25004ZM15.75 6.50004C15.62 6.50004 15.49 6.47004 15.37 6.42004C15.25 6.37004 15.14 6.30004 15.04 6.21004C14.95 6.11004 14.87 6.00004 14.82 5.88004C14.7718 5.75923 14.748 5.63009 14.75 5.50004C14.75 5.37004 14.77 5.24004 14.82 5.12004C14.88 4.99004 14.95 4.89004 15.04 4.79004C15.09 4.75004 15.14 4.70004 15.19 4.67004C15.25 4.63004 15.31 4.60004 15.37 4.58004C15.5523 4.50426 15.7528 4.48376 15.9466 4.5211C16.1404 4.55844 16.319 4.65197 16.46 4.79004C16.55 4.89004 16.62 4.99004 16.67 5.12004C16.72 5.24004 16.75 5.37004 16.75 5.50004C16.75 5.63004 16.72 5.76004 16.67 5.88004C16.62 6.00004 16.55 6.11004 16.46 6.21004C16.36 6.30004 16.25 6.37004 16.13 6.42004C16.01 6.47004 15.88 6.50004 15.75 6.50004Z" fill="white"/>
</svg>
