<svg width="22" height="22" viewBox="0 0 22 22" fill="none" xmlns="http://www.w3.org/2000/svg">
<path d="M21.9958 1.92598C21.9873 1.89636 21.9789 1.8625 21.9704 1.83287C21.9493 1.75669 21.9323 1.68051 21.9027 1.60433C21.6742 0.956791 21.2255 0.525098 20.578 0.330413C20.5357 0.317717 20.4933 0.300787 20.4468 0.283858C20.4256 0.275394 20.4002 0.266929 20.3791 0.258465L20.3452 0.25H2.16333L2.12947 0.262697C2.08715 0.275394 2.04482 0.292323 2.0025 0.30502C1.90093 0.334646 1.79512 0.368504 1.69354 0.415059C1.11372 0.673228 0.732816 1.11762 0.563524 1.73976C0.55506 1.76516 0.546595 1.79478 0.533898 1.82441C0.529666 1.84134 0.521202 1.85827 0.516969 1.8752L0.504272 1.90906V20.0909L0.538131 20.1968C0.55506 20.2475 0.571989 20.2983 0.588918 20.3491C0.808997 21.0347 1.27878 21.4876 1.9898 21.6907C2.0152 21.6992 2.04482 21.7077 2.07868 21.7204C2.09561 21.7246 2.11254 21.7331 2.12947 21.7373L2.16333 21.75H20.3029L20.3325 21.7415C20.3791 21.7288 20.4214 21.7161 20.468 21.7034C20.578 21.6738 20.6923 21.6442 20.8023 21.5934C21.3864 21.3352 21.7715 20.8908 21.9408 20.2687L22 20.0486V1.95561L21.9958 1.92598ZM1.63006 8.57913C1.63006 6.50531 1.63006 4.4315 1.63006 2.35768C1.63006 1.69744 1.95171 1.37579 2.61195 1.37579C5.49413 1.37579 8.37209 1.37579 11.2543 1.37579C14.1365 1.37579 17.0144 1.37579 19.8966 1.37579C20.5568 1.37579 20.8785 1.69744 20.8785 2.35768C20.8785 8.11781 20.8785 13.8822 20.8785 19.6423C20.8785 20.3026 20.5568 20.6242 19.8966 20.6242C14.1365 20.6242 8.37209 20.6242 2.61195 20.6242C1.95171 20.6242 1.63006 20.3026 1.63006 19.6423C1.63006 17.5685 1.63006 15.4947 1.63006 13.4209V11V8.57913Z" fill="white"/>
<path d="M8.76561 18.5845C9.81522 18.5845 10.8648 18.5845 11.9144 18.5845C12.4308 18.5845 12.6212 18.3941 12.6212 17.8777C12.6212 17.4291 12.6212 16.9847 12.6212 16.5361C12.6212 15.241 12.6212 13.9036 12.617 12.5874C12.617 12.2826 12.7143 12.0245 12.9386 11.7451C13.1714 11.4573 13.6412 11.3134 14.0517 11.3939C14.2718 11.4362 14.6612 11.5885 14.8135 12.1006C14.8982 12.3927 14.9447 12.727 14.949 13.0952C14.9617 14.2549 14.9574 15.4357 14.9574 16.5784C14.9574 17.0143 14.9574 17.4545 14.9574 17.8904C14.9574 18.3856 15.1606 18.5845 15.66 18.5845C16.1933 18.5845 16.7265 18.5845 17.2598 18.5845C17.7888 18.5845 18.3221 18.5845 18.8511 18.5845C19.3506 18.5845 19.5452 18.3898 19.5452 17.8819V16.7054C19.5452 15.4357 19.5452 14.1279 19.541 12.8371C19.541 12.5366 19.5325 12.1387 19.4902 11.7451C19.3675 10.6532 19.0204 9.79405 18.4237 9.11265C17.4122 7.96147 16.0663 7.52132 14.3141 7.75832C13.7047 7.84297 13.1503 8.05035 12.6255 8.39317C12.6043 7.9784 12.3927 7.78372 11.9568 7.78372C10.8775 7.78372 9.80252 7.78372 8.72329 7.78372C8.29583 7.78372 8.07575 8.0038 8.07575 8.43126V17.8777C8.07152 18.3898 8.2662 18.5845 8.76561 18.5845ZM15.8716 11.6901C15.6092 10.941 15.0125 10.4289 14.238 10.2892C13.4254 10.1411 12.5831 10.4289 12.0837 11.0172C11.6817 11.4954 11.4912 12.0075 11.4954 12.5789C11.5039 13.7301 11.5039 14.9024 11.4997 16.0367C11.4997 16.4895 11.4997 16.9424 11.4997 17.3952V17.4418H9.21424V8.93067H11.4997C11.4997 9.04071 11.4997 9.15498 11.4997 9.26502C11.4997 9.46393 11.4997 9.66708 11.5039 9.866C11.5081 10.1411 11.669 10.3442 11.9314 10.412C12.198 10.4797 12.4477 10.3739 12.5493 10.1453C12.8625 9.45547 13.4296 9.0788 14.4538 8.88411C15.1987 8.74445 15.9097 8.81639 16.5657 9.10842C17.4841 9.51049 18.047 10.2554 18.2883 11.3769C18.3687 11.7451 18.411 12.1091 18.411 12.4562C18.4195 13.7131 18.4195 14.9955 18.4195 16.2314C18.4195 16.6377 18.4195 17.044 18.4195 17.4545H16.079V16.2102C16.079 15.1902 16.079 14.1364 16.079 13.0995C16.0832 12.5535 16.0155 12.1091 15.8716 11.6901Z" fill="white"/>
<path d="M6.65375 7.78809C5.87077 7.78809 5.0878 7.78809 4.30483 7.78809H3.87313C3.3441 7.78809 3.14941 7.98277 3.14941 8.50757C3.14941 9.65029 3.14941 10.7888 3.14941 11.9315V13.2012V14.4709C3.14941 15.6178 3.14941 16.7648 3.14941 17.9159C3.14941 18.373 3.36103 18.5846 3.81812 18.5846C4.27097 18.5846 4.72382 18.5846 5.17668 18.5846C5.66339 18.5846 6.15434 18.5846 6.64105 18.5846C7.13199 18.5846 7.33514 18.3857 7.33514 17.899C7.33514 14.7587 7.33514 11.6141 7.33514 8.47372C7.33514 7.9997 7.12353 7.78809 6.65375 7.78809ZM4.29213 17.4504V8.92657H6.19243V17.4546H4.29213V17.4504Z" fill="white"/>
<path d="M5.26986 7.6054H5.28255H5.29525C5.34604 7.60117 5.40106 7.5927 5.45185 7.58847C5.57035 7.57577 5.69309 7.56308 5.81582 7.54191C6.76809 7.35993 7.46641 6.58965 7.51297 5.66701C7.56376 4.62164 6.97124 3.78365 6.00628 3.53817C5.655 3.44929 5.2487 3.42813 4.85509 3.47469C4.24565 3.54664 3.72931 3.85559 3.39496 4.34231C3.06061 4.83325 2.9548 5.4554 3.10716 6.05638C3.34417 6.98748 4.19063 7.5927 5.26986 7.6054ZM4.20332 5.23532C4.30066 4.94329 4.52921 4.72321 4.82547 4.62587C5.0921 4.54122 5.3672 4.52853 5.64653 4.59624C6.15017 4.71475 6.4295 5.09565 6.39141 5.61622C6.36179 6.06908 5.97242 6.42036 5.44761 6.46691C5.41376 6.47115 5.37143 6.46691 5.32911 6.46691C5.30372 6.46691 5.28255 6.46691 5.25716 6.46691C4.82124 6.47115 4.52498 6.33995 4.32183 6.05215C4.15677 5.81091 4.11021 5.51465 4.20332 5.23532Z" fill="white"/>
</svg>