<svg width="550" height="242" viewBox="0 0 550 242" fill="none" xmlns="http://www.w3.org/2000/svg">
<path d="M440.141 30.8083C440.141 50.4841 440.141 70.2246 440.141 90.2241C439.688 89.7063 439.429 89.4474 439.235 89.1238C433.41 81.1629 427.585 73.2019 421.695 65.241C421.242 64.6585 420.983 64.076 420.983 63.2993C420.983 42.782 420.983 22.2001 420.983 1.68283C420.983 1.42394 420.983 1.16505 420.983 0.841431C429.009 0.841431 436.905 0.841431 444.996 0.841431C473.409 48.7366 501.887 96.7611 530.301 144.786C530.366 144.786 530.495 144.786 530.56 144.721C530.56 144.397 530.625 144.074 530.625 143.75C530.625 143.621 530.625 143.427 530.625 143.297C530.689 113.46 530.689 83.5576 530.754 53.7202C530.754 36.9569 530.819 20.1937 530.819 3.43036C530.819 2.58896 530.689 1.74755 530.56 0.841431C536.967 0.841431 543.31 0.841431 549.653 0.841431C549.718 0.906154 549.718 0.906154 549.783 0.970877C549.783 1.0356 549.847 1.0356 549.847 1.10032C549.912 1.42394 549.977 1.68283 549.977 2.00645C549.977 59.4806 549.977 117.019 549.977 174.623C541.822 174.623 533.796 174.623 525.964 174.623C497.422 126.599 468.943 78.6387 440.465 30.7435C440.4 30.7435 440.271 30.8083 440.141 30.8083Z" fill="#384974"/>
<path d="M83.3813 175.465C83.8991 175.012 84.2227 174.753 84.4816 174.429C85.3877 173.458 86.2938 172.487 87.2647 171.581C88.3002 170.61 89.4652 169.704 90.5008 168.733C92.8956 166.533 95.2256 164.332 97.4909 162.067C99.3032 160.255 100.662 158.119 102.086 156.048C103.381 154.106 104.222 152.035 105.258 150.028C106.293 148.151 106.876 146.016 107.135 143.88C107.394 142.003 107.717 140.061 107.911 138.184C107.976 137.019 108.17 135.789 107.523 134.689C107.458 134.56 107.458 134.301 107.458 134.106C107.523 131.129 106.552 128.411 105.322 125.822C103.899 122.715 102.216 119.673 99.821 117.084C98.9796 116.178 98.0087 115.401 97.1673 114.495C94.8373 111.906 92.1189 109.835 89.1416 108.023C87.7177 107.117 86.0996 106.47 84.6757 105.564C80.7923 103.104 76.4559 101.615 72.5078 99.3501C71.1486 98.5734 69.7894 97.8615 68.236 97.3437C66.8121 96.8906 65.5176 95.9198 64.0937 95.2726C62.0226 94.3017 59.9515 93.3956 57.8156 92.4895C56.0033 91.7128 54.1911 90.9361 52.3788 90.1594C50.5666 89.3828 48.7543 88.6061 46.9421 87.8294C45.9065 87.3763 44.8062 86.9233 43.7706 86.4702C42.8645 86.0819 41.9584 85.823 41.0523 85.4346C40.0814 85.0463 39.24 84.4638 38.2692 84.0107C36.8453 83.4282 35.3566 82.9104 33.9327 82.3279C33.2208 82.0043 32.6382 81.4865 31.991 81.2276C30.114 80.5157 28.3665 79.4801 26.4895 78.6387C25.9718 78.3798 25.454 78.2504 24.9362 78.0562C24.6126 77.9267 24.2889 77.7973 23.9653 77.6031C20.6644 75.4673 17.1694 73.5256 13.998 71.0014C10.1793 67.9594 7.13729 64.3349 4.54836 60.2573C3.31862 58.3156 2.67138 56.1797 1.76526 54.1086C0.859132 51.7138 0.664963 49.0602 0.147177 46.4713C-0.176439 44.8532 0.0824535 43.1057 0.276623 41.4229C0.40607 40.3873 0.147177 39.4164 0.341347 38.3161C0.859132 35.2094 1.57109 32.1027 2.41249 29.0607C3.05972 26.666 4.16002 24.4654 5.19559 22.2648C5.58393 21.4234 6.29588 20.7761 6.74895 19.9347C8.43175 17.0222 10.8912 14.8216 13.1565 12.4269C15.0982 10.3557 17.4283 8.80236 19.7583 7.249C22.6709 5.37203 25.7776 3.68922 29.0137 2.39476C30.2435 1.9417 31.4085 1.29446 32.6382 0.776679C33.4149 0.453062 34.2563 0.323616 35.3566 0C34.9683 0.582509 34.7094 0.906125 34.4505 1.22974C32.6382 3.36561 30.7613 5.50147 29.2726 7.83151C27.2015 11.0029 25.0656 14.2391 23.2534 17.54C21.3117 21.035 19.9525 24.8537 19.4347 28.8018C18.5933 35.2741 19.9525 41.3581 24.0948 46.6007C25.7776 48.6719 27.5898 50.6783 29.5963 52.4905C33.2208 55.8561 37.4278 58.4451 41.7642 60.9045C48.6249 64.7232 55.8739 67.7005 63.0582 70.8719C71.6664 74.6259 80.404 78.3151 89.0122 82.1338C95.0314 84.8521 100.986 87.5705 106.617 91.0656C112.83 94.9489 118.461 99.5443 122.733 105.628C125.84 110.094 127.976 114.948 128.946 120.256C129.594 123.815 130.047 127.505 129.594 131.129C129.27 133.977 128.946 136.825 128.234 139.608C127.717 141.614 127.328 143.621 126.552 145.562C125.257 148.993 123.574 152.164 121.309 155.077C120.144 156.63 118.591 157.86 117.361 159.284C115.29 161.614 112.766 163.361 110.177 165.044C107.07 167.051 103.704 168.604 100.339 170.157C96.3906 172.034 92.0542 173.005 87.9766 174.494C86.7469 174.947 85.5171 175.206 84.2227 175.529C84.0285 175.594 83.8343 175.529 83.3813 175.465Z" fill="#384974"/>
<path d="M325.905 174.429C328.429 172.746 330.888 171.322 333.089 169.51C335.613 167.439 338.008 165.174 340.273 162.844C342.862 160.125 344.933 156.889 347.069 153.718C347.652 152.876 348.234 152.099 348.752 151.193C349.917 148.993 350.953 146.727 352.118 144.592C353.865 141.42 355.03 137.99 356.26 134.624C356.907 132.877 357.619 131.129 358.202 129.317C358.655 127.958 358.914 126.534 359.302 125.11C359.431 124.527 359.755 124.01 359.82 123.427C360.273 121.291 360.596 119.155 361.049 117.02C361.373 115.531 361.761 114.107 362.02 112.618C362.279 111.065 362.409 109.576 362.603 108.023C362.732 107.246 362.797 106.405 362.926 105.628C363.056 104.657 363.121 103.687 363.25 102.716C363.38 101.745 363.574 100.839 363.703 99.8679C363.833 98.2498 364.027 96.567 364.027 94.9489C364.091 89.9005 364.156 84.7874 364.027 79.739C363.962 77.6031 363.897 75.4025 363.574 73.2667C363.315 71.4544 362.991 69.6422 362.732 67.8947C362.473 66.2118 362.409 64.4643 362.02 62.7815C361.697 61.2929 362.085 59.7395 361.244 58.3156C360.92 57.7978 361.244 56.9564 361.049 56.3739C360.143 53.5908 359.496 50.8077 358.784 47.9599C358.202 45.6946 357.49 43.5587 356.778 41.3582C356.325 39.999 355.807 38.6398 355.289 37.2806C354.966 36.5039 354.642 35.792 354.318 35.0153C353.542 33.203 352.894 31.3908 351.988 29.6433C350.823 27.378 349.464 25.2421 348.17 23.0415C347.587 22.0059 347.134 20.9056 346.422 19.9995C341.179 12.9447 335.419 6.47237 327.782 1.94175C327.717 1.87703 327.588 1.8123 327.523 1.74758C327.199 1.48869 326.876 1.2298 326.293 0.776733C327.135 0.841457 327.652 0.776733 328.17 0.90618C330.306 1.2298 332.442 1.55341 334.578 2.00647C336.002 2.33009 337.426 2.78315 338.849 3.23621C339.626 3.49511 340.403 3.81872 341.179 4.07761C342.668 4.66012 344.286 5.11318 345.71 5.76042C351.017 8.34934 356.066 11.4561 360.532 15.4042C361.956 16.6986 363.444 17.9931 364.803 19.417C370.887 25.8246 376.001 32.8147 379.755 40.8404C381.243 43.9471 382.732 47.1185 383.897 50.3547C385.58 55.0795 387.327 59.7395 388.039 64.7232C388.427 67.1827 389.075 69.5775 389.463 71.9722C389.722 73.3961 389.722 74.82 389.851 76.2439C390.11 78.5092 390.499 80.7098 390.563 82.9751C390.693 86.9233 390.757 90.8066 390.563 94.7548C390.369 98.1204 389.981 101.486 389.463 104.852C388.751 108.994 387.78 113.136 386.55 117.149C385.45 120.838 384.026 124.333 382.473 127.828C382.085 128.67 381.567 129.382 381.114 130.158C380.013 132.229 379.107 134.365 377.878 136.372C375.094 141.032 371.988 145.433 368.234 149.316C366.745 150.87 365.192 152.229 363.703 153.718C358.719 158.895 352.765 162.714 346.616 166.274C344.157 167.698 341.633 168.863 338.979 169.898C336.261 170.999 333.607 172.228 330.824 173.005C329.529 173.329 328.3 173.717 327.005 174.041C326.811 174.3 326.358 174.364 325.905 174.429Z" fill="#384974"/>
<path d="M271.019 0.776733C267.719 3.30094 264.418 5.69569 261.246 8.2199C260.211 9.0613 259.305 10.0321 258.463 11.0677C256.392 13.6566 254.321 16.2456 252.379 18.8992C250.114 21.8765 248.302 25.1126 246.683 28.4782C245.195 31.5202 243.641 34.4975 242.476 37.6042C240.599 42.4584 239.176 47.5069 237.752 52.5553C237.104 54.95 236.781 57.4095 236.328 59.8043C235.81 62.5226 235.292 65.1763 234.904 67.8947C234.58 70.16 234.451 72.4253 234.321 74.6259C234.127 79.3507 233.804 84.0107 233.868 88.7355C233.868 93.072 234.257 97.4084 234.515 101.745C234.645 104.269 234.839 106.729 235.227 109.253C235.745 112.683 236.522 116.113 237.169 119.544C238.205 125.045 240.017 130.288 241.7 135.595C242.282 137.343 243.188 139.025 243.836 140.773C244.742 143.232 246.101 145.498 247.266 147.828C249.661 152.682 252.832 157.083 256.263 161.29C257.751 163.102 259.499 164.721 261.117 166.403C264.029 169.316 267.395 171.581 270.955 173.717C271.214 173.846 271.473 174.041 271.602 174.429C270.89 174.3 270.243 174.105 269.531 173.976C268.042 173.588 266.554 173.264 265.065 172.811C263.576 172.358 262.152 171.775 260.728 171.193C259.693 170.804 258.722 170.287 257.686 169.834C256.004 168.992 254.321 168.216 252.638 167.374C251.149 166.597 249.661 165.95 248.237 165.044C246.295 163.814 244.353 162.52 242.476 161.161C240.47 159.737 238.464 158.313 236.587 156.76C235.163 155.595 233.933 154.235 232.639 152.941C232.121 152.423 231.603 151.97 231.085 151.452C230.697 151.129 230.308 150.805 229.985 150.417C227.461 147.439 225.001 144.397 222.671 141.226C221.83 140.126 221.118 139.025 220.471 137.86C219.694 136.372 218.658 135.077 217.817 133.653C217.234 132.618 216.846 131.518 216.328 130.482C214.904 127.893 213.804 125.11 212.833 122.327C212.445 121.162 211.862 120.062 211.474 118.896C211.021 117.537 210.891 116.113 210.374 114.819C209.273 111.906 208.95 108.8 208.108 105.822C207.785 104.657 207.849 103.363 207.72 102.068C207.655 101.292 207.591 100.58 207.461 99.8032C207.202 97.7967 207.138 95.7903 207.073 93.7839C206.943 91.7128 206.943 89.6416 206.943 87.5705C207.008 85.1757 207.138 82.7163 207.332 80.3215C207.396 79.4801 207.332 78.7034 207.396 77.862C207.526 75.5967 207.849 73.3314 208.367 71.1308C208.691 69.6422 208.626 68.0888 209.014 66.6002C209.532 64.4643 209.856 62.3285 210.633 60.322C211.409 58.4451 211.798 56.4387 212.38 54.5617C212.833 53.1378 213.222 51.7139 213.739 50.2899C214.387 48.5424 215.098 46.7302 215.81 45.0474C216.199 44.1413 216.717 43.3646 217.17 42.5232C219.888 36.8923 223.059 31.585 226.878 26.666C228.302 24.8537 229.726 22.9768 231.215 21.2292C231.668 20.6467 232.315 20.1937 232.897 19.6759C234.515 18.1225 236.069 16.5045 237.687 14.9511C238.205 14.4333 238.787 13.9155 239.434 13.5919C241.57 12.4916 243.253 10.6794 245.389 9.51436C248.107 8.02573 250.826 6.47237 253.674 5.17791C255.809 4.20706 258.075 3.36566 260.405 2.84787C263.576 2.0712 266.812 1.61813 269.984 1.03563C270.437 0.776733 270.761 0.841457 271.019 0.776733Z" fill="#384974"/>
<path d="M158.79 175.594C158.79 174.882 158.79 174.235 158.79 173.652C158.79 117.02 158.79 60.4515 158.79 3.8187C158.79 2.84785 158.66 1.94172 158.531 0.906154C158.984 0.906154 159.437 0.841431 159.955 0.841431C165.456 0.841431 170.958 0.841431 176.394 0.841431C178.012 0.841431 178.012 0.841431 178.012 2.52423C178.012 59.8043 178.012 117.084 178.012 174.364C178.012 174.753 178.012 175.141 178.012 175.659C171.605 175.594 165.262 175.594 158.79 175.594Z" fill="#384974"/>
<path d="M0.605957 175.529C0.605957 158.96 0.605957 142.585 0.605957 126.146C0.735403 126.146 0.929573 126.146 0.929573 126.21C12.9681 142.585 25.0713 158.96 37.1099 175.335C36.0096 175.724 4.6188 175.918 0.605957 175.529Z" fill="#384974"/>
<path d="M457.747 175.594C445.32 175.594 433.281 175.594 421.113 175.594C421.113 159.025 421.113 142.456 421.113 125.628C433.346 142.326 445.449 158.896 457.747 175.594Z" fill="#384974"/>
<path d="M132.382 218.117C132.382 225.819 132.382 233.586 132.382 241.353C130.182 241.353 128.111 241.353 125.91 241.353C125.91 229.508 125.91 217.664 125.91 205.69C127.593 205.69 129.276 205.625 130.959 205.755C131.347 205.755 131.8 206.273 132.124 206.661C135.36 210.609 138.531 214.492 141.767 218.441C144.227 221.418 146.686 224.46 149.081 227.437C149.664 228.149 150.117 228.861 150.634 229.573C150.829 229.508 150.893 229.444 150.893 229.444C150.958 229.444 150.958 229.379 150.958 229.314C150.958 229.185 150.958 229.12 150.958 228.99C150.958 221.288 150.958 213.586 150.958 205.755C153.159 205.755 155.294 205.755 157.495 205.755C157.495 217.599 157.495 229.444 157.495 241.417C155.683 241.417 154 241.417 152.317 241.417C151.994 241.417 151.541 241.158 151.346 240.835C149.275 238.311 147.334 235.657 145.262 233.133C142.868 230.22 140.408 227.372 138.013 224.46C136.784 222.971 135.683 221.353 134.454 219.865C133.936 219.217 133.159 218.764 132.382 218.117Z" fill="#384974"/>
<path d="M288.236 229.702C290.954 233.651 293.543 237.34 296.261 241.223C295.873 241.288 295.614 241.417 295.355 241.417C293.672 241.417 291.925 241.417 290.242 241.417C289.465 241.417 288.883 241.223 288.43 240.511C287.847 239.54 287.265 238.569 286.618 237.663C285 235.463 283.382 233.262 281.699 230.997C278.721 230.997 275.679 230.997 272.508 230.997C272.508 232.68 272.508 234.362 272.508 236.045C272.508 237.728 272.508 239.476 272.508 241.223C270.307 241.223 268.172 241.223 265.906 241.223C265.906 229.444 265.906 217.599 265.906 205.69C266.295 205.69 266.618 205.625 267.007 205.625C271.861 205.625 276.715 205.496 281.569 205.625C285.129 205.755 288.559 206.467 291.472 208.732C293.996 210.674 295.161 213.198 295.549 216.305C295.744 217.923 295.938 219.411 295.549 221.029C294.773 224.136 293.349 226.855 290.436 228.473C289.66 229.055 288.948 229.379 288.236 229.702ZM272.573 225.366C274.32 225.625 280.534 225.56 282.734 225.301C285.841 224.913 288.106 223.424 288.883 220.188C289.53 217.534 288.624 213.327 284.87 212.227C283.058 211.709 281.31 211.45 279.498 211.386C277.815 211.321 276.068 211.386 274.385 211.386C273.802 211.386 273.155 211.386 272.573 211.386C272.573 216.111 272.573 220.771 272.573 225.366Z" fill="#384974"/>
<path d="M206.038 225.949C206.038 229.314 206.038 232.486 206.038 235.787C212.704 235.787 219.371 235.787 226.102 235.787C226.102 237.728 226.102 239.476 226.102 241.353C217.235 241.353 208.303 241.353 199.371 241.353C199.371 229.444 199.371 217.664 199.371 205.755C208.044 205.755 216.652 205.755 225.39 205.755C225.39 207.567 225.39 209.315 225.39 211.256C218.982 211.256 212.639 211.256 206.038 211.256C206.038 212.875 205.973 214.298 205.973 215.787C205.973 217.276 205.973 218.764 205.973 220.447C211.798 220.447 217.494 220.447 223.254 220.447C223.254 222.389 223.254 224.072 223.254 225.949C217.558 225.949 211.863 225.949 206.038 225.949Z" fill="#384974"/>
<path d="M59.4392 205.755C68.1122 205.755 76.7203 205.755 85.3932 205.755C85.3932 207.632 85.3932 209.38 85.3932 211.321C78.9209 211.321 72.5781 211.321 66.041 211.321C66.041 214.428 66.041 217.405 66.041 220.512C71.7366 220.512 77.3676 220.512 83.1279 220.512C83.1279 222.389 83.1279 224.136 83.1279 226.013C77.4323 226.013 71.7366 226.013 65.9763 226.013C65.9763 229.314 65.9763 232.55 65.9763 235.851C72.6428 235.851 79.2445 235.851 85.9758 235.851C85.9758 237.793 85.9758 239.541 85.9758 241.417C77.1087 241.417 68.3063 241.417 59.3745 241.417C59.4392 229.508 59.4392 217.729 59.4392 205.755Z" fill="#384974"/>
<path d="M361.891 215.01C360.467 213.91 359.108 212.421 357.037 211.839C353.477 210.868 349.982 210.674 346.552 212.292C341.892 214.492 339.821 218.182 339.562 223.23C339.432 225.948 340.209 228.473 341.503 230.803C341.827 231.385 342.41 231.838 342.863 232.356C344.222 233.715 345.646 235.074 347.587 235.592C350.37 236.304 353.154 236.434 355.937 235.786C357.231 235.527 358.655 235.398 359.755 233.845C359.755 230.609 359.755 226.984 359.755 223.23C361.891 223.23 363.898 223.23 365.969 223.23C366.034 223.554 366.098 223.877 366.098 224.266C366.098 228.279 366.098 232.356 366.098 236.369C366.098 237.146 365.904 237.663 365.192 238.116C363.25 239.346 361.244 240.317 359.108 241.029C356.325 241.935 353.477 241.935 350.629 242.065C348.947 242.129 347.264 241.87 345.71 241.353C344.092 240.835 342.539 239.864 341.05 239.023C340.144 238.505 339.173 237.922 338.461 237.146C337.296 235.981 336.131 234.751 335.355 233.327C334.837 232.486 334.254 231.644 333.995 230.673C333.413 228.602 332.96 226.531 332.895 224.395C332.83 221.612 333.154 218.894 334.06 216.24C334.254 215.658 334.643 215.14 334.966 214.687C335.937 213.263 336.714 211.709 337.879 210.544C339.044 209.379 340.468 208.409 341.956 207.567C345.128 205.884 348.623 204.849 352.247 205.108C356.713 205.431 361.179 206.078 364.804 209.12C364.933 209.25 365.127 209.379 365.257 209.509C366.681 210.803 366.681 210.868 365.192 212.098C364.027 213.069 363.056 213.975 361.891 215.01Z" fill="#384974"/>
<path d="M489.266 241.418C486.806 241.418 484.606 241.418 482.276 241.418C481.046 238.764 479.816 236.046 478.522 233.198C472.826 233.198 466.936 233.198 460.917 233.198C459.752 235.851 458.652 238.57 457.422 241.353C455.221 241.353 453.021 241.353 450.626 241.353C451.014 240.188 451.338 239.088 451.791 238.052C452.438 236.563 453.28 235.14 453.927 233.651C454.186 233.133 454.315 232.486 454.509 231.968C455.221 230.479 455.933 228.991 456.645 227.502C457.875 224.784 458.975 222.001 460.205 219.218C460.788 217.923 461.435 216.758 462.017 215.464C462.859 213.651 463.571 211.774 464.412 209.962C464.93 208.797 465.512 207.697 465.965 206.532C466.224 205.885 466.677 205.69 467.26 205.69C468.943 205.69 470.69 205.69 472.373 205.69C473.02 205.69 473.214 206.014 473.409 206.532C474.12 208.15 474.897 209.768 475.609 211.386C476.321 212.875 476.968 214.428 477.68 215.917C478.457 217.6 479.234 219.347 480.01 221.095C480.722 222.713 481.369 224.331 482.081 225.949C482.34 226.596 482.729 227.179 482.988 227.826C484.541 231.256 486.094 234.686 487.648 238.117C488.165 239.217 488.683 240.253 489.266 241.418ZM476.386 227.761C474.185 222.713 472.049 217.729 469.849 212.681C469.59 213.069 469.331 213.328 469.137 213.651C468.684 214.493 468.295 215.334 467.972 216.176C467.26 217.988 466.613 219.8 465.901 221.548C465.577 222.389 465.124 223.166 464.8 223.942C464.283 225.172 463.765 226.402 463.182 227.696C467.648 227.761 471.855 227.761 476.386 227.761Z" fill="#384974"/>
<path d="M129.147 37.6042C121.38 25.501 113.937 13.2683 106.558 0.776733C114.131 0.776733 121.574 0.776733 129.147 0.776733C129.147 13.0741 129.147 25.3715 129.147 37.6042Z" fill="#384974"/>
<path d="M406.81 241.353C406.874 240.188 406.939 239.282 406.939 238.311C406.939 228.085 406.939 217.858 406.939 207.567C406.939 206.985 406.939 206.467 406.939 205.755C409.14 205.755 411.275 205.755 413.411 205.755C413.735 207.179 413.67 240.188 413.347 241.417C411.534 241.417 409.657 241.417 407.78 241.417C407.457 241.417 407.133 241.353 406.81 241.353Z" fill="#384974"/>
</svg>
