<svg width="42" height="42" viewBox="0 0 42 42" fill="none" xmlns="http://www.w3.org/2000/svg">
<path d="M40.9999 15.0933V27.0934C40.9999 32.0935 39.9999 35.5935 37.7599 37.8535L24.9998 25.0934L40.4599 9.6333C40.8199 11.2133 40.9999 13.0133 40.9999 15.0933Z" stroke="white" stroke-width="1.5" stroke-linecap="round" stroke-linejoin="round"/>
<path d="M40.4603 9.63577L9.54007 40.556C3.52002 39.176 1 35.016 1 27.0959V15.0958C1 5.09574 5.00003 1.0957 15.0001 1.0957H27.0002C34.9203 1.0957 39.0803 3.61572 40.4603 9.63577Z" stroke="white" stroke-width="1.5" stroke-linecap="round" stroke-linejoin="round"/>
<path d="M37.7603 37.8578C35.5003 40.0978 32.0002 41.0978 27.0002 41.0978H15.0001C12.9201 41.0978 11.1201 40.9178 9.54004 40.5578L25.0002 25.0977L37.7603 37.8578Z" stroke="white" stroke-width="1.5" stroke-linecap="round" stroke-linejoin="round"/>
<path d="M9.48028 13.0537C10.8403 7.19368 19.6404 7.19368 21.0004 13.0537C21.7804 16.4938 19.6204 19.4138 17.7204 21.2138C17.0512 21.8497 16.1634 22.2043 15.2403 22.2043C14.3172 22.2043 13.4294 21.8497 12.7603 21.2138C10.8603 19.4138 8.68028 16.4938 9.48028 13.0537Z" stroke="white" stroke-width="1.5"/>
<path d="M15.1897 14.4951H15.1987" stroke="white" stroke-width="2" stroke-linecap="round" stroke-linejoin="round"/>
</svg>
