<svg width="30" height="30" viewBox="0 0 30 30" fill="none" xmlns="http://www.w3.org/2000/svg">
<path d="M6.60156 12.2V9.4C6.60156 4.766 8.00156 1 15.0016 1C22.0016 1 23.4016 4.766 23.4016 9.4V12.2M15.0016 24.1C15.9298 24.1 16.8201 23.7313 17.4764 23.0749C18.1328 22.4185 18.5016 21.5283 18.5016 20.6C18.5016 19.6717 18.1328 18.7815 17.4764 18.1251C16.8201 17.4688 15.9298 17.1 15.0016 17.1C14.0733 17.1 13.1831 17.4688 12.5267 18.1251C11.8703 18.7815 11.5016 19.6717 11.5016 20.6C11.5016 21.5283 11.8703 22.4185 12.5267 23.0749C13.1831 23.7313 14.0733 24.1 15.0016 24.1Z" fill="white"/>
<path d="M6.60156 12.2V9.4C6.60156 4.766 8.00156 1 15.0016 1C22.0016 1 23.4016 4.766 23.4016 9.4V12.2M15.0016 24.1C15.9298 24.1 16.8201 23.7313 17.4764 23.0749C18.1328 22.4185 18.5016 21.5283 18.5016 20.6C18.5016 19.6717 18.1328 18.7815 17.4764 18.1251C16.8201 17.4688 15.9298 17.1 15.0016 17.1C14.0733 17.1 13.1831 17.4688 12.5267 18.1251C11.8703 18.7815 11.5016 19.6717 11.5016 20.6C11.5016 21.5283 11.8703 22.4185 12.5267 23.0749C13.1831 23.7313 14.0733 24.1 15.0016 24.1Z" stroke="black" stroke-width="1.5" stroke-linecap="round" stroke-linejoin="round"/>
<path d="M22 29.0002H8C2.4 29.0002 1 27.6002 1 22.0002V19.2002C1 13.6002 2.4 12.2002 8 12.2002H22C27.6 12.2002 29 13.6002 29 19.2002V22.0002C29 27.6002 27.6 29.0002 22 29.0002Z" fill="#D9D9D9" stroke="black" stroke-width="1.5" stroke-linecap="round" stroke-linejoin="round"/>
</svg>