<svg width="56" height="56" viewBox="0 0 56 56" fill="none" xmlns="http://www.w3.org/2000/svg">
<path d="M27.9998 39.3748C31.0167 39.3748 33.9099 38.1764 36.0431 36.0431C38.1764 33.9099 39.3748 31.0167 39.3748 27.9998C39.3748 24.983 38.1764 22.0897 36.0431 19.9565C33.9099 17.8233 31.0167 16.6248 27.9998 16.6248C24.983 16.6248 22.0897 17.8233 19.9565 19.9565C17.8233 22.0897 16.6248 24.983 16.6248 27.9998C16.6248 31.0167 17.8233 33.9099 19.9565 36.0431C22.0897 38.1764 24.983 39.3748 27.9998 39.3748Z" stroke="#333333" stroke-width="1.5" stroke-linecap="round" stroke-linejoin="round"/>
<path d="M40.495 40.495L40.2675 40.2675M40.2675 15.7325L40.495 15.505M15.505 40.495L15.7325 40.2675M28 10.64V10.5M28 45.5V45.36M10.64 28H10.5M45.5 28H45.36M15.7325 15.7325L15.505 15.505" stroke="#333333" stroke-width="2" stroke-linecap="round" stroke-linejoin="round"/>
<rect x="1" y="1" width="54" height="54" rx="27" stroke="#333333"/>
</svg>
