<svg width="56" height="56" viewBox="0 0 56 56" fill="none" xmlns="http://www.w3.org/2000/svg">
<path d="M26.6389 35.7756V39.6162C26.6389 42.8702 23.6118 45.5 19.8848 45.5C16.1578 45.5 13.1118 42.8702 13.1118 39.6162V35.7756C13.1118 39.0297 16.1388 41.3378 19.8848 41.3378C23.6118 41.3378 26.6389 39.0108 26.6389 35.7756Z" stroke="black" stroke-width="1.5" stroke-linecap="round" stroke-linejoin="round"/>
<path d="M26.6351 30.5731C26.6351 31.5191 26.3703 32.3893 25.9162 33.1461C24.8 34.9812 22.5108 36.1353 19.8622 36.1353C17.2135 36.1353 14.9243 34.9623 13.8081 33.1461C13.354 32.3893 13.0892 31.5191 13.0892 30.5731C13.0892 28.9461 13.8459 27.4893 15.0567 26.4299C16.2865 25.3515 17.9703 24.7083 19.8432 24.7083C21.7162 24.7083 23.4 25.3704 24.6297 26.4299C25.8784 27.4704 26.6351 28.9461 26.6351 30.5731Z" stroke="black" stroke-width="1.5" stroke-linecap="round" stroke-linejoin="round"/>
<path d="M26.6389 30.5729V35.7756C26.6389 39.0297 23.6118 41.3378 19.8848 41.3378C16.1578 41.3378 13.1118 39.0108 13.1118 35.7756V30.5729C13.1118 27.3189 16.1388 24.6891 19.8848 24.6891C21.7578 24.6891 23.4416 25.3513 24.6713 26.4107C25.8821 27.4702 26.6389 28.9459 26.6389 30.5729ZM47.9189 24.6324V28.5297C47.9189 29.5702 47.0864 30.4216 46.027 30.4594H42.3189C40.2756 30.4594 38.4026 28.9648 38.2324 26.9216C38.1189 25.7297 38.5729 24.6134 39.3675 23.8378C40.0675 23.1189 41.0324 22.7026 42.0918 22.7026H46.027C47.0864 22.7405 47.9189 23.5918 47.9189 24.6324Z" stroke="black" stroke-width="1.5" stroke-linecap="round" stroke-linejoin="round"/>
<path d="M10.0811 23.7433V19.9595C10.0811 14.8135 13.1838 11.2189 18.0081 10.6135C18.5 10.5378 19.0108 10.5 19.5405 10.5H36.5676C37.0595 10.5 37.5324 10.5189 37.9865 10.5946C42.8676 11.1622 46.027 14.7757 46.027 19.9595V22.7027H42.0919C41.0324 22.7027 40.0676 23.1189 39.3676 23.8378C38.573 24.6135 38.1189 25.7297 38.2324 26.9216C38.4027 28.9649 40.2757 30.4595 42.3189 30.4595H46.027V33.2027C46.027 38.8784 42.2432 42.6622 36.5676 42.6622H31.8378" stroke="black" stroke-width="1.5" stroke-linecap="round" stroke-linejoin="round"/>
<rect x="0.581055" y="1" width="56.8379" height="54" rx="27" stroke="#333333"/>
</svg>
