<svg width="62" height="56" viewBox="0 0 62 56" fill="none" xmlns="http://www.w3.org/2000/svg">
<path d="M12.7778 32.5209V20.2709C12.7778 13.4654 16.6667 10.5487 22.5001 10.5487H41.9445C47.7778 10.5487 51.6667 13.4654 51.6667 20.2709V31.9376C51.6667 38.7431 47.7778 41.6598 41.9445 41.6598H25.4167" stroke="white" stroke-width="1.5" stroke-miterlimit="10" stroke-linecap="round" stroke-linejoin="round"/>
<path d="M44.8612 21.243V30.9653M20.6937 39.793L16.5909 35.6903M20.6334 35.7486L16.5306 39.8514M32.2223 30.9653C33.5115 30.9653 34.748 30.4531 35.6596 29.5415C36.5712 28.6298 37.0834 27.3934 37.0834 26.1042C37.0834 24.8149 36.5712 23.5785 35.6596 22.6668C34.748 21.7552 33.5115 21.243 32.2223 21.243C30.933 21.243 29.6966 21.7552 28.7849 22.6668C27.8733 23.5785 27.3612 24.8149 27.3612 26.1042C27.3612 27.3934 27.8733 28.6298 28.7849 29.5415C29.6966 30.4531 30.933 30.9653 32.2223 30.9653ZM26.3889 37.7708C26.3889 39.2291 25.9806 40.6097 25.2612 41.7764C24.5757 42.9284 23.602 43.8821 22.436 44.5436C21.2699 45.205 19.9517 45.5514 18.6112 45.5486C17.2706 45.5514 15.9524 45.205 14.7864 44.5436C13.6203 43.8821 12.6466 42.9284 11.9612 41.7764C11.221 40.5716 10.8305 39.1848 10.8334 37.7708C10.8334 33.4736 14.3139 29.993 18.6112 29.993C22.9084 29.993 26.3889 33.4736 26.3889 37.7708Z" stroke="white" stroke-width="1.5" stroke-miterlimit="10" stroke-linecap="round" stroke-linejoin="round"/>
<rect x="1.33337" y="1.04871" width="59.8333" height="54" rx="27" stroke="white"/>
</svg>
