<svg width="101" height="100" viewBox="0 0 101 100" fill="none" xmlns="http://www.w3.org/2000/svg">
<rect x="1.75" y="1.5" width="97" height="97" rx="48.5" fill="white"/>
<path d="M41.5 56.1254C41.5 59.5204 44.125 62.2504 47.345 62.2504H53.925C56.725 62.2504 59 59.8704 59 56.8954C59 53.7104 57.6 52.5554 55.535 51.8204L45 48.1454C42.935 47.4104 41.535 46.2904 41.535 43.0704C41.535 40.1304 43.81 37.7154 46.61 37.7154H53.19C56.41 37.7154 59.035 40.4454 59.035 43.8404M50.25 34.2504V65.7504" stroke="#384974" stroke-width="3" stroke-linecap="round" stroke-linejoin="round"/>
<path d="M85.25 50C85.25 69.32 69.57 85 50.25 85C30.93 85 15.25 69.32 15.25 50C15.25 30.68 30.93 15 50.25 15" stroke="#384974" stroke-width="3" stroke-linecap="round" stroke-linejoin="round"/>
<path d="M67.75 18.5V32.5M67.75 32.5H81.75M67.75 32.5L85.25 15" stroke="#384974" stroke-width="3" stroke-linecap="round" stroke-linejoin="round"/>
<rect x="1.75" y="1.5" width="97" height="97" rx="48.5" stroke="white" stroke-width="3"/>
</svg>