<svg width="101" height="100" viewBox="0 0 101 100" fill="none" xmlns="http://www.w3.org/2000/svg">
<rect x="1.66669" y="0.75" width="98.5" height="98.5" rx="49.25" fill="white"/>
<circle cx="50.9167" cy="50" r="30" fill="#384974"/>
<path d="M40.4169 57.7505C40.4169 61.6305 43.3361 64.7505 46.9169 64.7505H54.2343C57.3481 64.7505 59.878 62.0305 59.878 58.6305C59.878 54.9905 58.3211 53.6705 56.0247 52.8305L44.3091 48.6305C42.0127 47.7905 40.4559 46.5105 40.4559 42.8305C40.4559 39.4705 42.9858 36.7105 46.0996 36.7105H53.4169C56.9978 36.7105 59.9169 39.8305 59.9169 43.7105M50.1475 32.7505V68.7505" stroke="white" stroke-linecap="round" stroke-linejoin="round"/>
<rect x="1.66669" y="0.75" width="98.5" height="98.5" rx="49.25" stroke="white" stroke-width="1.5"/>
</svg>
