<svg width="101" height="100" viewBox="0 0 101 100" fill="none" xmlns="http://www.w3.org/2000/svg">
<rect x="2.25" y="1.5" width="97" height="97" rx="48.5" fill="white"/>
<path d="M19.0834 57.6667V36.6667C19.0834 25 25.75 20 35.75 20H69.0834C79.0834 20 85.75 25 85.75 36.6667V56.6667C85.75 68.3333 79.0834 73.3333 69.0834 73.3333H40.75" stroke="#384974" stroke-width="3" stroke-miterlimit="10" stroke-linecap="round" stroke-linejoin="round"/>
<path d="M74.0834 38.3331V54.9998M32.6534 70.1331L25.62 63.0998M32.55 63.1998L25.5167 70.2331M52.4167 54.9998C54.6268 54.9998 56.7464 54.1218 58.3092 52.559C59.8721 50.9962 60.75 48.8766 60.75 46.6665C60.75 44.4563 59.8721 42.3367 58.3092 40.7739C56.7464 39.2111 54.6268 38.3331 52.4167 38.3331C50.2066 38.3331 48.0869 39.2111 46.5241 40.7739C44.9613 42.3367 44.0834 44.4563 44.0834 46.6665C44.0834 48.8766 44.9613 50.9962 46.5241 52.559C48.0869 54.1218 50.2066 54.9998 52.4167 54.9998ZM42.4167 66.6665C42.4167 69.1665 41.7167 71.5331 40.4834 73.5331C39.3083 75.5081 37.6391 77.143 35.6402 78.2769C33.6412 79.4108 31.3815 80.0046 29.0834 79.9998C26.7852 80.0046 24.5255 79.4108 22.5266 78.2769C20.5276 77.143 18.8585 75.5081 17.6834 73.5331C16.4145 71.4679 15.7451 69.0904 15.75 66.6665C15.75 59.2998 21.7167 53.3331 29.0834 53.3331C36.45 53.3331 42.4167 59.2998 42.4167 66.6665Z" stroke="#384974" stroke-width="3" stroke-miterlimit="10" stroke-linecap="round" stroke-linejoin="round"/>
<rect x="2.25" y="1.5" width="97" height="97" rx="48.5" stroke="white" stroke-width="3"/>
</svg>