<svg width="103" height="100" viewBox="0 0 103 100" fill="none" xmlns="http://www.w3.org/2000/svg">
<rect x="0.530701" width="102.439" height="100" rx="50" fill="white"/>
<path d="M27.8695 62.2163C43.8358 62.2163 59.733 62.2163 75.6763 62.2163C75.5153 60.905 75.8604 59.8467 76.7576 58.9725C77.6778 58.0982 78.8282 57.8912 80.0475 58.0062C80.0475 52.6228 80.0475 47.3314 80.0475 42.0169C78.7591 42.132 77.6778 41.8559 76.7576 41.0277C75.8143 40.1534 75.5613 39.0261 75.6533 37.7838C59.687 37.7838 43.7668 37.7838 27.8695 37.7838C28.0306 40.3145 26.4431 42.201 23.4293 42.063C23.4293 47.3544 23.4293 52.6458 23.4293 57.9372C26.8572 58.3973 27.7775 59.2715 27.8695 62.2163Z" fill="#384974"/>
<path d="M20.5307 35C41.3743 35 62.1488 35 82.9694 35C82.9694 45.0077 82.9694 54.9923 82.9694 65C62.1718 65 41.3743 65 20.5307 65C20.5307 55.0153 20.5307 45.0537 20.5307 35ZM27.8697 62.2163C43.8359 62.2163 59.7332 62.2163 75.6764 62.2163C75.5154 60.9049 75.8605 59.8466 76.7577 58.9724C77.678 58.0982 78.8283 57.8911 80.0476 58.0061C80.0476 52.6227 80.0476 47.3313 80.0476 42.0169C78.7593 42.1319 77.678 41.8558 76.7577 41.0276C75.8145 40.1534 75.5614 39.0261 75.6534 37.7837C59.6872 37.7837 43.7669 37.7837 27.8697 37.7837C28.0307 40.3144 26.4433 42.2009 23.4295 42.0629C23.4295 47.3543 23.4295 52.6457 23.4295 57.9371C26.8574 58.3972 27.7776 59.2715 27.8697 62.2163Z" fill="#384974"/>
<path d="M27.8695 62.2163C43.8358 62.2163 59.733 62.2163 75.6763 62.2163C75.5153 60.905 75.8604 59.8467 76.7576 58.9725C77.6778 58.0982 78.8282 57.8912 80.0475 58.0062C80.0475 52.6228 80.0475 47.3314 80.0475 42.0169C78.7591 42.132 77.6778 41.8559 76.7576 41.0277C75.8143 40.1534 75.5613 39.0261 75.6533 37.7838C59.687 37.7838 43.7668 37.7838 27.8695 37.7838C28.0306 40.3145 26.4431 42.201 23.4293 42.063C23.4293 47.3544 23.4293 52.6458 23.4293 57.9372C26.8572 58.3973 27.7775 59.2715 27.8695 62.2163Z" stroke="white" stroke-width="2" stroke-miterlimit="10"/>
<path d="M27.8695 62.2163C43.8358 62.2163 59.733 62.2163 75.6763 62.2163C75.5153 60.905 75.8604 59.8467 76.7576 58.9725C77.6778 58.0982 78.8282 57.8912 80.0475 58.0062C80.0475 52.6228 80.0475 47.3314 80.0475 42.0169C78.7591 42.132 77.6778 41.8559 76.7576 41.0277C75.8143 40.1534 75.5613 39.0261 75.6533 37.7838C59.687 37.7838 43.7668 37.7838 27.8695 37.7838C28.0306 40.3145 26.4431 42.201 23.4293 42.063C23.4293 47.3544 23.4293 52.6458 23.4293 57.9372C26.8572 58.3973 27.7775 59.2715 27.8695 62.2163Z" stroke="white" stroke-width="2" stroke-miterlimit="10"/>
<path d="M61 50.1956C60.8113 53.5928 59.2637 56.4426 55.7912 58.1223C51.7902 60.0474 47.091 58.7074 44.5998 55.0649C41.5236 50.6297 43.0334 44.5903 47.8459 42.0047C50.9598 40.325 55.074 40.7968 57.7162 43.0805C59.9054 44.93 60.9056 47.2703 61 50.1956Z" stroke="white" stroke-width="2" stroke-miterlimit="10"/>
<rect x="89.1942" y="4.74146" width="10.6978" height="117.313" transform="rotate(45 89.1942 4.74146)" fill="#384974"/>
</svg>