<svg width="96" height="95" viewBox="0 0 96 95" fill="none" xmlns="http://www.w3.org/2000/svg">
<rect x="2.25" y="1.5" width="92" height="92" rx="46" fill="white"/>
<path d="M48.2499 71.8749C54.7145 71.8749 60.9144 69.3068 65.4856 64.7356C70.0568 60.1644 72.6249 53.9645 72.6249 47.4999C72.6249 41.0352 70.0568 34.8353 65.4856 30.2641C60.9144 25.6929 54.7145 23.1249 48.2499 23.1249C41.7852 23.1249 35.5853 25.6929 31.0141 30.2641C26.4429 34.8353 23.8749 41.0352 23.8749 47.4999C23.8749 53.9645 26.4429 60.1644 31.0141 64.7356C35.5853 69.3068 41.7852 71.8749 48.2499 71.8749Z" stroke="#384974" stroke-width="3" stroke-linecap="round" stroke-linejoin="round"/>
<path d="M75.025 74.275L74.5375 73.7875M74.5375 21.2125L75.025 20.725M21.475 74.275L21.9625 73.7875M48.25 10.3V10M48.25 85V84.7M11.05 47.5H10.75M85.75 47.5H85.45M21.9625 21.2125L21.475 20.725" stroke="#384974" stroke-width="3" stroke-linecap="round" stroke-linejoin="round"/>
<rect x="2.25" y="1.5" width="92" height="92" rx="46" stroke="white" stroke-width="3"/>
</svg>