<svg width="96" height="95" viewBox="0 0 96 95" fill="none" xmlns="http://www.w3.org/2000/svg">
<rect x="0.838867" y="0.75" width="93.489" height="93.5" rx="46.7445" fill="white"/>
<path d="M47.5525 65.7319C37.5207 65.7292 29.3463 57.5387 29.349 47.4961C29.349 37.424 37.5422 29.2496 47.6143 29.2631C57.6838 29.2792 65.8286 37.4643 65.8151 47.558C65.8017 57.5817 57.6112 65.7346 47.5525 65.7319Z" fill="#384974"/>
<path d="M66.8697 78.9672C66.816 79.5451 66.5902 79.8919 66.1225 80.0478C65.6252 80.2144 65.2139 80.0532 64.9236 79.6392C64.6736 79.2817 64.4747 78.8919 64.2543 78.5129C62.4775 75.4378 60.706 72.3599 58.9266 69.2875C58.6658 68.8386 58.5825 68.3978 58.905 67.9569C59.1792 67.5833 59.5771 67.4166 60.0071 67.5752C60.2706 67.672 60.5555 67.8763 60.6953 68.1128C62.6979 71.5401 64.679 74.9781 66.6574 78.4188C66.7676 78.6097 66.8187 78.8355 66.8671 78.9645L66.8697 78.9672Z" fill="#384974"/>
<path d="M79.0003 66.7744C78.8955 66.7314 78.6589 66.6642 78.4493 66.5432C75.0758 64.6024 71.7023 62.6563 68.3341 60.7101C67.6406 60.3096 67.4309 59.729 67.7508 59.1537C68.068 58.5866 68.697 58.4602 69.3798 58.8527C72.7694 60.8042 76.1564 62.7611 79.5406 64.7234C80.0863 65.0406 80.296 65.5083 80.1535 65.9948C80.0191 66.4545 79.6105 66.769 79.003 66.7771L79.0003 66.7744Z" fill="#384974"/>
<path d="M29.4 14.8813C29.857 14.8921 30.1661 15.1851 30.4107 15.6098C31.7144 17.8839 33.0289 20.1499 34.338 22.4213C34.9535 23.4912 35.5718 24.5583 36.1873 25.6309C36.6094 26.3674 36.5207 26.983 35.9508 27.3217C35.3782 27.663 34.7761 27.4372 34.3568 26.7168C32.416 23.3648 30.4779 20.0102 28.5425 16.6528C28.0506 15.798 28.4592 14.9082 29.4 14.884V14.8813Z" fill="#384974"/>
<path d="M27.5535 35.337C27.5481 36.1703 26.6799 36.638 25.9004 36.1999C24.5106 35.4177 23.1344 34.6112 21.7527 33.8129C19.7125 32.6355 17.6722 31.4608 15.6374 30.2754C14.9681 29.8856 14.7853 29.262 15.1508 28.7002C15.5003 28.1626 16.0755 28.0712 16.7556 28.461C19.0915 29.8077 21.4274 31.1571 23.7607 32.5065C24.7956 33.1032 25.8332 33.7027 26.8707 34.2967C27.2793 34.5279 27.5535 34.8397 27.5508 35.3343L27.5535 35.337Z" fill="#384974"/>
<path d="M16.1586 66.7862C15.5377 66.7485 15.1829 66.5066 15.0189 66.0201C14.8576 65.5362 15.0431 65.0604 15.5484 64.7648C16.957 63.9395 18.3763 63.1304 19.7902 62.3133C21.7955 61.1547 23.8007 59.9935 25.8087 58.8376C26.435 58.4774 27.0291 58.5769 27.3705 59.0822C27.7441 59.636 27.5425 60.2945 26.849 60.6977C24.6986 61.945 22.5401 63.1869 20.3869 64.4288C19.1854 65.1223 17.9892 65.8212 16.7849 66.5066C16.5591 66.6356 16.3091 66.719 16.1586 66.7862Z" fill="#384974"/>
<path d="M29.3464 80.11C28.5373 80.0911 28.0562 79.2498 28.4594 78.4971C28.9002 77.6773 29.3868 76.8843 29.8518 76.0779C31.3517 73.4785 32.849 70.8792 34.3489 68.2798C34.3973 68.1965 34.4403 68.1132 34.4967 68.0352C34.8489 67.5299 35.4456 67.3793 35.9429 67.6723C36.4429 67.9653 36.6257 68.5594 36.3219 69.1051C35.6876 70.2502 35.0209 71.3792 34.365 72.5135C33.0452 74.8011 31.7227 77.0859 30.4109 79.3734C30.169 79.7955 29.8652 80.1019 29.3464 80.1073V80.11Z" fill="#384974"/>
<path d="M59.8745 27.5721C58.8826 27.4726 58.4257 26.5936 58.9095 25.7469C59.896 24.0158 60.8987 22.29 61.8932 20.5643C62.8609 18.887 63.826 17.2069 64.8044 15.5377C65.2721 14.7393 66.1914 14.656 66.6645 15.3549C66.9253 15.7393 66.9118 16.1398 66.6834 16.5349C64.6888 19.9864 62.7023 23.4432 60.6863 26.8839C60.517 27.1742 60.1487 27.3463 59.8718 27.5748L59.8745 27.5721Z" fill="#384974"/>
<path d="M68.5729 36.5028C68.2853 36.2501 67.9116 36.0404 67.7154 35.7232C67.4842 35.3469 67.5837 34.9061 67.9224 34.5781C68.0433 34.4599 68.1912 34.3685 68.339 34.2824C71.6749 32.3524 75.0108 30.4224 78.3601 28.5112C78.6396 28.3499 79.0025 28.2397 79.317 28.2558C79.7713 28.28 80.0697 28.6133 80.1665 29.0596C80.2686 29.5353 80.0993 29.9305 79.6826 30.1832C78.9515 30.624 78.2096 31.0487 77.4677 31.4761C74.8199 33.0056 72.1749 34.5378 69.5245 36.0619C69.2664 36.2098 68.9815 36.3146 68.5729 36.5055V36.5028Z" fill="#384974"/>
<path d="M48.6401 17.1213C48.6401 19.097 48.6482 21.0728 48.6374 23.0458C48.632 23.9248 47.8713 24.457 47.1429 24.1076C46.6778 23.8845 46.5192 23.492 46.5192 22.9866C46.5273 20.3658 46.5192 17.7449 46.5192 15.1241C46.5192 13.8338 46.5139 12.5409 46.5192 11.2506C46.5219 10.4765 46.9655 9.97917 47.6079 10.0007C48.2396 10.0195 48.632 10.4926 48.6347 11.2533C48.6374 13.2102 48.6347 15.1671 48.6347 17.1213H48.6401Z" fill="#384974"/>
<path d="M17.1816 48.5565C15.2059 48.5565 13.2328 48.5645 11.2571 48.5538C10.4158 48.5484 9.90233 47.8898 10.1523 47.1667C10.3512 46.5942 10.7975 46.4329 11.3646 46.4356C13.6253 46.4463 15.8833 46.4383 18.1439 46.441C19.8159 46.441 21.4852 46.441 23.1571 46.441C23.6679 46.441 24.0361 46.6587 24.2216 47.1372C24.3936 47.5753 24.2995 48.0054 23.934 48.2635C23.6786 48.4436 23.3103 48.543 22.9905 48.5457C21.0551 48.5699 19.117 48.5591 17.1789 48.5591L17.1816 48.5565Z" fill="#384974"/>
<path d="M48.6363 77.9409C48.6363 79.9166 48.6363 81.8896 48.6363 83.8653C48.6363 84.3546 48.4266 84.7121 47.9831 84.9029C47.5584 85.0857 47.1283 85.0131 46.8407 84.661C46.6633 84.446 46.5369 84.118 46.5342 83.8412C46.5154 79.8736 46.5181 75.9033 46.5235 71.9358C46.5235 71.2369 46.9643 70.7826 47.588 70.7826C48.2008 70.7826 48.6255 71.2476 48.6282 71.9573C48.6363 73.9518 48.6282 75.9437 48.6309 77.9382L48.6363 77.9409Z" fill="#384974"/>
<path d="M77.9197 48.556C75.944 48.556 73.971 48.556 71.9953 48.556C71.4845 48.556 71.0464 48.3436 70.963 47.8463C70.9039 47.5023 71.0195 47.0641 71.2103 46.7657C71.3367 46.5668 71.7345 46.4539 72.0114 46.4512C75.9789 46.4324 79.9492 46.4351 83.9195 46.4405C84.613 46.4405 85.0807 46.8948 85.078 47.505C85.0753 48.1125 84.6049 48.5506 83.906 48.5533C81.9115 48.5614 79.9169 48.556 77.9251 48.556H77.9197Z" fill="#384974"/>
<rect x="0.838867" y="0.75" width="93.489" height="93.5" rx="46.7445" stroke="white" stroke-width="1.5"/>
</svg>