<svg width="86" height="84" viewBox="0 0 86 84" fill="none" xmlns="http://www.w3.org/2000/svg">
<path d="M0.993164 83.9949C2.36368 79.8961 3.65944 76.0722 4.93027 72.2484C6.0516 68.9243 7.19785 65.6253 8.24442 62.3013C8.44377 61.7015 8.24442 60.8268 7.9454 60.2269C5.62799 55.9282 4.03321 51.4046 3.38533 46.556C1.89023 35.3343 4.48174 25.1374 11.3343 16.0901C16.8662 8.79225 24.1673 3.96868 32.9635 1.51941C51.1789 -3.52908 70.5405 4.31858 79.5609 20.9636C87.7093 36.0341 86.6876 50.9797 76.6704 64.9505C70.0421 74.1978 60.7475 79.4212 49.5592 81.0457C41.1367 82.2704 33.113 80.8208 25.4381 77.1219C24.8401 76.847 23.9679 76.747 23.345 76.947C16.5672 79.0463 9.81429 81.2207 3.03647 83.395C2.46335 83.57 1.86531 83.7449 0.993164 83.9949ZM4.00829 80.9958C4.88044 80.7458 5.45356 80.6209 5.97685 80.4459C11.7081 78.6215 17.4393 76.797 23.1706 74.9226C24.1424 74.5977 24.9647 74.6227 25.8867 75.1225C32.3405 78.4965 39.1931 79.8461 46.4444 79.3962C54.9415 78.8714 62.5417 75.9473 68.9457 70.4239C79.7105 61.1017 84.445 49.2302 82.4016 34.9845C80.8318 24.0377 75.275 15.3653 66.3043 9.01718C58.3554 3.39385 49.4595 1.16952 39.7662 2.2192C27.7805 3.49383 18.137 9.09216 11.5586 19.1142C2.86205 32.3602 2.53811 46.2311 10.1133 60.2269C10.4123 60.7768 10.512 61.6015 10.3376 62.1764C9.61494 64.5756 8.76771 66.9 7.97032 69.2742C6.67456 73.0731 5.40372 76.847 4.00829 80.9958Z" fill="white"/>
<path d="M4.0083 80.9957C4.88045 80.7458 5.45357 80.6208 5.97686 80.4459C11.7081 78.6214 17.4393 76.797 23.1706 74.9225C24.1424 74.5976 24.9647 74.6226 25.8867 75.1225C32.3405 78.4965 39.1931 79.8461 46.4444 79.3962C54.9415 78.8714 62.5417 75.9472 68.9457 70.4239C79.7105 61.1017 84.445 49.2302 82.4017 34.9844C80.8318 24.0377 75.275 15.3653 66.3044 9.01715C58.3554 3.39383 49.4595 1.16949 39.7662 2.21918C27.7805 3.4938 18.137 9.09213 11.5586 19.1141C2.86205 32.3602 2.53811 46.2311 10.1133 60.2269C10.4123 60.7768 10.512 61.6015 10.3376 62.1763C9.61495 64.5756 8.76772 66.8999 7.97033 69.2742C6.67457 73.0731 5.40373 76.847 4.0083 80.9957Z" fill="#00B314"/>
<path d="M68.3476 52.479C68.2978 58.4272 64.5102 61.6013 59.2026 63.0259C55.1658 64.1255 51.6274 62.501 47.9893 61.3264C38.1465 58.2023 31.1444 51.5043 25.3633 43.2318C23.2203 40.1577 21.3016 37.0586 20.5541 33.3347C19.4327 27.9113 21.0774 23.3877 25.2138 19.8137C25.9365 19.1889 27.0578 18.889 28.0545 18.7641C29.2257 18.6141 30.4716 18.6891 31.6428 18.914C32.2159 19.014 32.9385 19.5138 33.1628 20.0387C34.7327 23.5126 36.3025 27.0116 37.6481 30.5855C38.1714 31.9851 37.0999 33.2098 36.3524 34.3344C35.8291 35.1342 35.1563 35.834 34.5084 36.5338C34.0349 37.0336 33.9602 37.4835 34.309 38.0833C37.8475 43.9316 42.7315 48.1803 49.0857 50.7295C49.8581 51.0294 50.3316 50.7795 50.805 50.2047C51.8018 48.9301 52.8484 47.6804 53.8451 46.4058C54.9415 45.0062 55.7887 44.6314 57.4084 45.3311C60.6229 46.7557 63.7875 48.3053 66.9771 49.8548C68.1732 50.4296 68.4971 51.5043 68.3476 52.479ZM56.1376 61.6763C57.1842 61.5013 58.2556 61.3514 59.3022 61.1264C63.5134 60.1767 66.1299 57.2526 66.4787 53.0039C66.5286 52.479 66.2794 51.6293 65.9056 51.4293C62.9403 49.9298 59.9252 48.5302 56.935 47.1056C56.1625 46.7307 55.6641 47.0056 55.1408 47.6804C54.0943 49.08 52.9729 50.4046 51.8267 51.7292C50.9047 52.8039 49.9827 53.0289 48.7119 52.529C41.7098 49.8298 36.3524 45.1812 32.5398 38.7331C31.7175 37.3585 31.892 36.6337 32.9635 35.3591C33.8854 34.2844 34.7576 33.1848 35.5301 32.0101C35.7792 31.6102 35.8042 30.8605 35.6297 30.3856C34.5084 27.5114 33.3123 24.6873 32.0913 21.8631C31.9169 21.4383 31.5929 20.9384 31.1942 20.7385C29.7739 19.9887 26.8834 20.5385 25.7371 21.7132C21.9744 25.512 21.2269 29.9857 22.8466 34.9592C23.9679 38.3832 26.1358 41.1824 28.1791 44.0565C34.4835 52.8789 42.881 58.6022 53.3966 61.1514C54.2936 61.3514 55.1907 61.5013 56.1376 61.6763Z" fill="white"/>
<path d="M56.1376 61.6766C57.1841 61.5016 58.2556 61.3517 59.3022 61.1267C63.5134 60.177 66.1299 57.2529 66.4787 53.0042C66.5285 52.4793 66.2794 51.6296 65.9056 51.4296C62.9403 49.9301 59.9252 48.5305 56.935 47.1059C56.1625 46.731 55.6641 47.0059 55.1408 47.6807C54.0943 49.0803 52.9729 50.4049 51.8267 51.7295C50.9047 52.8042 49.9827 53.0292 48.7119 52.5293C41.7098 49.8301 36.3523 45.1815 32.5398 38.7334C31.7175 37.3588 31.8919 36.634 32.9634 35.3594C33.8854 34.2847 34.7576 33.1851 35.53 32.0104C35.7792 31.6105 35.8041 30.8608 35.6297 30.3859C34.5084 27.5118 33.3123 24.6876 32.0913 21.8634C31.9169 21.4386 31.5929 20.9387 31.1942 20.7388C29.7739 19.989 26.8833 20.5388 25.7371 21.7135C21.9744 25.5123 21.2269 29.986 22.8466 34.9595C23.9679 38.3835 26.1358 41.1827 28.1791 44.0568C34.4835 52.8792 42.881 58.6025 53.3965 61.1517C54.2936 61.3517 55.1907 61.5016 56.1376 61.6766Z" fill="white"/>
</svg>
