<svg width="42" height="42" viewBox="0 0 42 42" fill="none" xmlns="http://www.w3.org/2000/svg">
<path d="M10.8 38.2977C13.8 40.0977 17.4 41.0977 21 41.0977C32 41.0977 41 32.0977 41 21.0977C41 10.0977 32 1.09766 21 1.09766C10 1.09766 1 10.0977 1 21.0977C1 24.6977 2 28.0977 3.6 31.0977L1.88 37.7097C1.79126 38.051 1.79437 38.4097 1.88899 38.7495C1.98362 39.0892 2.16641 39.3979 2.41883 39.6442C2.67124 39.8906 2.9843 40.0658 3.32626 40.1521C3.66823 40.2384 4.02693 40.2327 4.366 40.1357L10.8 38.2977Z" stroke="white" stroke-width="1.5" stroke-miterlimit="10" stroke-linecap="round" stroke-linejoin="round"/>
<path d="M30.0002 26.7932C30.0002 27.1172 29.9282 27.4512 29.7742 27.7752C29.6171 28.1099 29.4108 28.4194 29.1622 28.6932C28.7202 29.1792 28.2342 29.5292 27.6822 29.7552C27.1422 29.9812 26.5562 30.0972 25.9262 30.0972C25.0062 30.0972 24.0242 29.8812 22.9862 29.4412C21.8889 28.9654 20.8489 28.3669 19.8862 27.6572C18.8392 26.8923 17.8511 26.05 16.9302 25.1372C16.0192 24.2214 15.1788 23.2379 14.4162 22.1952C13.7155 21.2409 13.1225 20.2119 12.6482 19.1272C12.2162 18.0972 12.0002 17.1172 12.0002 16.1832C12.0002 15.5712 12.1082 14.9872 12.3242 14.4472C12.5402 13.8972 12.8842 13.3932 13.3622 12.9432C13.9382 12.3752 14.5682 12.0972 15.2362 12.0972C15.4882 12.0972 15.7402 12.1512 15.9662 12.2592C16.2002 12.3672 16.4062 12.5292 16.5702 12.7632L18.6622 15.7072C18.8222 15.9312 18.9422 16.1392 19.0222 16.3372C19.1022 16.5252 19.1482 16.7152 19.1482 16.8852C19.1456 17.112 19.0799 17.3336 18.9582 17.5252C18.8194 17.7593 18.6499 17.9739 18.4542 18.1632L17.7682 18.8752C17.7205 18.9219 17.6831 18.978 17.6583 19.04C17.6335 19.102 17.6219 19.1684 17.6242 19.2352C17.6242 19.3052 17.6342 19.3692 17.6522 19.4412C17.6782 19.5132 17.7062 19.5672 17.7242 19.6212C17.8842 19.9192 18.1642 20.3052 18.5622 20.7732C18.9682 21.2412 19.4002 21.7192 19.8682 22.1952C20.3562 22.6732 20.8242 23.1132 21.3022 23.5192C21.7702 23.9132 22.1582 24.1832 22.4642 24.3452L22.6282 24.4192C22.7001 24.4448 22.776 24.457 22.8522 24.4552C22.9212 24.4566 22.9898 24.4437 23.0535 24.4172C23.1172 24.3907 23.1747 24.3512 23.2222 24.3012L23.9062 23.6252C24.1322 23.4012 24.3482 23.2312 24.5562 23.1212C24.7475 22.9993 24.9694 22.9341 25.1962 22.9332C25.3855 22.936 25.5724 22.9761 25.7462 23.0512C25.9442 23.1312 26.1522 23.2472 26.3762 23.4012L29.3602 25.5172C29.5765 25.6578 29.7484 25.8568 29.8562 26.0912C29.9497 26.3135 29.9987 26.552 30.0002 26.7932Z" stroke="white" stroke-width="1.5" stroke-miterlimit="10"/>
</svg>
